<?xml version="1.0" encoding="utf-8"?>
<!-- Generator: Adobe Illustrator 16.0.0, SVG Export Plug-In . SVG Version: 6.00 Build 0)  -->
<!DOCTYPE svg PUBLIC "-//W3C//DTD SVG 1.1//EN" "http://www.w3.org/Graphics/SVG/1.1/DTD/svg11.dtd">
<svg version="1.1" id="Layer_1" xmlns="http://www.w3.org/2000/svg" xmlns:xlink="http://www.w3.org/1999/xlink" x="0px" y="0px"
	 width="362px" height="362px" viewBox="0 0 362 362" enable-background="new 0 0 362 362" xml:space="preserve">
<g>
	<rect fill="#070625" width="362" height="362"/>
	<g>
		<g>
			<g>
				<g>
					<g>
						<path fill="#00F4FF" d="M322.906,217.898c2.417-0.369,4.783-1.002,7.2-1.371c0.795-0.121,0.456-1.325-0.332-1.205
							c-2.417,0.368-4.783,1.002-7.2,1.371C321.779,216.814,322.118,218.019,322.906,217.898L322.906,217.898z"/>
					</g>
				</g>
				<g>
					<g>
						<path fill="#00F4FF" d="M326.595,214.045c-0.686,1.713-1.401,3.399-2.338,4.993c-0.409,0.696,0.672,1.325,1.08,0.631
							c0.99-1.687,1.737-3.479,2.463-5.292C328.1,213.628,326.891,213.306,326.595,214.045L326.595,214.045z"/>
					</g>
				</g>
				<g>
					<g>
						<path fill="#00F4FF" d="M323.603,215.842c1.755,0.39,3.245,1.338,4.523,2.583c0.578,0.562,1.463-0.321,0.885-0.885
							c-1.424-1.385-3.12-2.47-5.076-2.903C323.149,214.462,322.815,215.667,323.603,215.842L323.603,215.842z"/>
					</g>
				</g>
			</g>
			<g>
				<g>
					<g>
						<path fill="#00F4FF" d="M332.334,346.005c3.52-0.535,7.054-1.525,10.634-1.058c0.798,0.104,0.787-1.147,0-1.25
							c-3.686-0.481-7.345,0.552-10.966,1.103C331.207,344.921,331.546,346.125,332.334,346.005L332.334,346.005z"/>
					</g>
				</g>
				<g>
					<g>
						<path fill="#00F4FF" d="M335.345,339.628c1.199,3.839,3.857,6.671,6.641,9.457c0.57,0.57,1.454-0.313,0.885-0.885
							c-2.623-2.624-5.188-5.281-6.32-8.904C336.311,338.529,335.104,338.856,335.345,339.628L335.345,339.628z"/>
					</g>
				</g>
				<g>
					<g>
						<path fill="#00F4FF" d="M340.365,340.1c-2.153,2.763-3.786,5.879-5.939,8.64c-0.489,0.628,0.389,1.52,0.885,0.885
							c2.153-2.763,3.786-5.88,5.939-8.64C341.739,340.356,340.861,339.465,340.365,340.1L340.365,340.1z"/>
					</g>
				</g>
			</g>
			<g>
				<g>
					<g>
						<path fill="#00F4FF" d="M133.431,131.461c0.438,2.424,1.188,4.776,1.628,7.2c0.144,0.792,1.348,0.456,1.205-0.332
							c-0.439-2.424-1.189-4.776-1.628-7.2C134.493,130.336,133.288,130.673,133.431,131.461L133.431,131.461z"/>
					</g>
				</g>
				<g>
					<g>
						<path fill="#00F4FF" d="M137.863,135.149c-2.027-0.683-4.037-1.387-5.958-2.336c-0.72-0.356-1.354,0.722-0.631,1.079
							c2.018,0.997,4.127,1.745,6.257,2.462C138.297,136.613,138.623,135.405,137.863,135.149L137.863,135.149z"/>
					</g>
				</g>
				<g>
					<g>
						<path fill="#00F4FF" d="M135.874,132.158c-0.482,1.836-1.685,3.302-3.097,4.524c-0.611,0.528,0.277,1.409,0.884,0.884
							c1.569-1.358,2.885-3.041,3.418-5.076C137.284,131.71,136.079,131.379,135.874,132.158L135.874,132.158z"/>
					</g>
				</g>
			</g>
			<g>
				<g>
					<g>
						<path fill="#00F4FF" d="M157.236,49.438c-1.898,2.756-3.518,5.69-5.416,8.445c-0.459,0.666,0.625,1.29,1.079,0.631
							c1.899-2.755,3.518-5.689,5.416-8.445C158.774,49.403,157.69,48.778,157.236,49.438L157.236,49.438z"/>
					</g>
				</g>
				<g>
					<g>
						<path fill="#00F4FF" d="M156.937,56.443c-0.893-2.088-1.725-4.18-2.268-6.39c-0.192-0.783-1.398-0.451-1.205,0.332
							c0.569,2.314,1.459,4.502,2.394,6.688C156.174,57.813,157.25,57.176,156.937,56.443L156.937,56.443z"/>
					</g>
				</g>
				<g>
					<g>
						<path fill="#00F4FF" d="M158.328,51.9c-1.976,1.49-4.25,2.314-6.688,2.661c-0.795,0.113-0.456,1.317,0.332,1.205
							c2.533-0.359,4.935-1.24,6.986-2.787C159.594,52.5,158.972,51.414,158.328,51.9L158.328,51.9z"/>
					</g>
				</g>
			</g>
			<g>
				<g>
					<g>
						<path fill="#00F4FF" d="M25.699,318.278c-2.157-2.736-4.813-5.283-6.129-8.569c-0.296-0.738-1.505-0.417-1.205,0.332
							c1.405,3.507,4.147,6.199,6.451,9.122C25.313,319.796,26.192,318.904,25.699,318.278L25.699,318.278z"/>
					</g>
				</g>
				<g>
					<g>
						<path fill="#00F4FF" d="M18.667,318.823c2.734-2.957,3.88-6.647,4.923-10.454c0.213-0.778-0.992-1.108-1.205-0.332
							c-0.982,3.582-2.022,7.112-4.602,9.901C17.236,318.529,18.118,319.416,18.667,318.823L18.667,318.823z"/>
					</g>
				</g>
				<g>
					<g>
						<path fill="#00F4FF" d="M16.589,314.226c3.467,0.494,6.981,0.387,10.447,0.879c0.788,0.112,1.127-1.092,0.332-1.205
							c-3.467-0.492-6.981-0.385-10.447-0.879C16.133,312.908,15.793,314.112,16.589,314.226L16.589,314.226z"/>
					</g>
				</g>
			</g>
			<g>
				<g>
					<g>
						<path fill="#00F4FF" d="M190.261,346.235c-0.739-2.35-1.778-4.59-2.519-6.939c-0.241-0.767-1.448-0.438-1.205,0.332
							c0.739,2.35,1.778,4.59,2.519,6.939C189.297,347.334,190.504,347.006,190.261,346.235L190.261,346.235z"/>
					</g>
				</g>
				<g>
					<g>
						<path fill="#00F4FF" d="M185.297,343.041c2.15,0.436,4.284,0.897,6.361,1.615c0.764,0.265,1.089-0.943,0.332-1.205
							c-2.076-0.718-4.211-1.181-6.361-1.615C184.842,341.677,184.507,342.882,185.297,343.041L185.297,343.041z"/>
					</g>
				</g>
				<g>
					<g>
						<path fill="#00F4FF" d="M187.729,345.687c0.24-1.806,1.253-3.397,2.447-4.728c0.536-0.599-0.345-1.485-0.885-0.885
							c-1.442,1.607-2.524,3.448-2.813,5.612C186.373,346.483,187.625,346.474,187.729,345.687L187.729,345.687z"/>
					</g>
				</g>
			</g>
			<g>
				<g>
					<g>
						<path fill="#00F4FF" d="M80.437,36.972c-1.559-1.908-3.371-3.587-4.93-5.495c-0.51-0.625-1.389,0.265-0.884,0.884
							c1.559,1.908,3.371,3.587,4.93,5.495C80.063,38.48,80.942,37.591,80.437,36.972L80.437,36.972z"/>
					</g>
				</g>
				<g>
					<g>
						<path fill="#00F4FF" d="M74.789,35.91c2.102-0.391,4.199-0.75,6.337-0.858c0.802-0.041,0.806-1.291,0-1.25
							c-2.25,0.115-4.458,0.492-6.669,0.903C73.665,34.852,74.001,36.057,74.789,35.91L74.789,35.91z"/>
					</g>
				</g>
				<g>
					<g>
						<path fill="#00F4FF" d="M77.962,37.54c-0.462-1.844-0.125-3.687,0.507-5.447c0.273-0.76-0.935-1.085-1.205-0.332
							c-0.708,1.971-1.022,4.056-0.507,6.111C76.953,38.654,78.158,38.322,77.962,37.54L77.962,37.54z"/>
					</g>
				</g>
			</g>
			<g>
				<g>
					<g>
						<path fill="#00F4FF" d="M40.367,81.649c0.311-3.332,0.306-6.682,0.616-10.014c0.075-0.803-1.176-0.795-1.25,0
							c-0.311,3.332-0.306,6.682-0.616,10.014C39.042,82.452,40.293,82.445,40.367,81.649L40.367,81.649z"/>
					</g>
				</g>
				<g>
					<g>
						<path fill="#00F4FF" d="M37.09,75.301c1.838,1.421,3.638,2.868,5.222,4.576c0.549,0.592,1.431-0.293,0.884-0.884
							c-1.583-1.708-3.383-3.156-5.222-4.576C37.345,73.931,36.453,74.809,37.09,75.301L37.09,75.301z"/>
					</g>
				</g>
				<g>
					<g>
						<path fill="#00F4FF" d="M38.214,80.042c0.962-2.201,2.509-4.042,4.42-5.486c0.635-0.479,0.013-1.565-0.631-1.079
							c-2.082,1.572-3.817,3.528-4.869,5.934C36.816,80.142,37.893,80.779,38.214,80.042L38.214,80.042z"/>
					</g>
				</g>
			</g>
			<g>
				<g>
					<g>
						<path fill="#00F4FF" d="M231.745,239.918c-2.115,1.264-4.045,2.806-6.159,4.07c-0.69,0.414-0.063,1.495,0.631,1.08
							c2.114-1.266,4.044-2.808,6.159-4.07C233.067,240.585,232.438,239.504,231.745,239.918L231.745,239.918z"/>
					</g>
				</g>
				<g>
					<g>
						<path fill="#00F4FF" d="M229.813,245.462c-0.08-2.192-0.128-4.376,0.084-6.563c0.078-0.803-1.173-0.795-1.25,0
							c-0.212,2.187-0.164,4.37-0.084,6.563C228.592,246.266,229.842,246.269,229.813,245.462L229.813,245.462z"/>
					</g>
				</g>
				<g>
					<g>
						<path fill="#00F4FF" d="M231.962,242.481c-1.895,0.192-3.671-0.372-5.326-1.263c-0.71-0.381-1.341,0.698-0.631,1.08
							c1.833,0.985,3.856,1.646,5.957,1.433C232.756,243.65,232.764,242.4,231.962,242.481L231.962,242.481z"/>
					</g>
				</g>
			</g>
			<g>
				<g>
					<g>
						<path fill="#00F4FF" d="M173.532,33.357c2.417-0.369,4.783-1.002,7.2-1.371c0.795-0.121,0.456-1.326-0.332-1.205
							c-2.417,0.369-4.783,1.002-7.2,1.371C172.405,32.273,172.744,33.478,173.532,33.357L173.532,33.357z"/>
					</g>
				</g>
				<g>
					<g>
						<path fill="#00F4FF" d="M177.221,29.503c-0.686,1.713-1.401,3.4-2.336,4.994c-0.409,0.697,0.672,1.326,1.079,0.631
							c0.99-1.687,1.737-3.48,2.462-5.293C178.726,29.086,177.516,28.764,177.221,29.503L177.221,29.503z"/>
					</g>
				</g>
				<g>
					<g>
						<path fill="#00F4FF" d="M174.229,31.3c1.755,0.39,3.245,1.339,4.524,2.583c0.578,0.562,1.463-0.321,0.884-0.884
							c-1.424-1.384-3.12-2.47-5.076-2.904C173.776,29.92,173.442,31.125,174.229,31.3L174.229,31.3z"/>
					</g>
				</g>
			</g>
			<g>
				<g>
					<g>
						<path fill="#00F4FF" d="M237.98,124.727c3.52-0.535,7.054-1.525,10.634-1.058c0.798,0.104,0.787-1.147,0-1.25
							c-3.686-0.481-7.345,0.551-10.966,1.103C236.854,123.643,237.192,124.847,237.98,124.727L237.98,124.727z"/>
					</g>
				</g>
				<g>
					<g>
						<path fill="#00F4FF" d="M240.991,118.351c1.199,3.838,3.856,6.669,6.641,9.456c0.57,0.571,1.455-0.313,0.885-0.884
							c-2.622-2.624-5.188-5.281-6.32-8.904C241.957,117.252,240.75,117.58,240.991,118.351L240.991,118.351z"/>
					</g>
				</g>
				<g>
					<g>
						<path fill="#00F4FF" d="M246.012,118.823c-2.153,2.762-3.786,5.878-5.939,8.64c-0.489,0.627,0.389,1.519,0.885,0.884
							c2.153-2.762,3.786-5.879,5.939-8.64C247.386,119.08,246.508,118.188,246.012,118.823L246.012,118.823z"/>
					</g>
				</g>
			</g>
			<g>
				<g>
					<g>
						<path fill="#00F4FF" d="M289.422,53.326c-4.468-0.047-9.027,0.37-13.412-0.68c-0.783-0.188-1.116,1.018-0.332,1.205
							c4.503,1.078,9.156,0.676,13.744,0.725C290.229,54.584,290.228,53.334,289.422,53.326L289.422,53.326z"/>
					</g>
				</g>
				<g>
					<g>
						<path fill="#00F4FF" d="M284.545,59.054c-1.048-4.234-4.081-7.386-7.021-10.441c-0.561-0.582-1.443,0.303-0.885,0.884
							c2.791,2.9,5.704,5.867,6.7,9.889C283.533,60.168,284.738,59.836,284.545,59.054L284.545,59.054z"/>
					</g>
				</g>
				<g>
					<g>
						<path fill="#00F4FF" d="M278.479,57.792c3.002-2.348,5.518-5.24,8.52-7.59c0.634-0.497-0.258-1.375-0.885-0.884
							c-3.001,2.349-5.517,5.241-8.52,7.59C276.961,57.405,277.852,58.283,278.479,57.792L278.479,57.792z"/>
					</g>
				</g>
			</g>
			<g>
				<g>
					<path fill="#00F4FF" d="M58.654,201.823c-4.704-9.56-3.838-20.85,5.213-27.458c9.147-6.677,20.267-2.178,26.805,5.715
						c0.515,0.622,1.394-0.268,0.884-0.884c-7.182-8.67-18.373-12.41-28.32-5.91c-9.95,6.501-10.478,19.38-5.662,29.167
						C57.931,203.178,59.008,202.544,58.654,201.823L58.654,201.823z"/>
				</g>
			</g>
			<g>
				<g>
					<path fill="#00F4FF" d="M89.556,177.081c1.416-1.129,6.4-5.655,7.878-1.901c0.788,1.999-0.046,4.655-0.558,6.616
						c-1.377,5.269-4.555,9.267-8.389,12.986c-3.905,3.788-8.122,6.744-12.77,9.528c-4.583,2.745-9.401,5.32-14.513,6.922
						c-1.843,0.577-4.24,1.215-6.071,0.288c-2.814-1.425,0.261-7.418,1.021-9.065c0.335-0.727-0.742-1.362-1.079-0.631
						c-1.717,3.723-4.556,11.05,1.947,11.385c6.982,0.36,15.113-5.249,20.763-8.687c7.869-4.787,15.834-11.061,19.452-19.754
						c1.001-2.405,3.263-9.097,0.63-11.383c-2.931-2.545-6.892,0.977-9.194,2.813C88.042,176.699,88.933,177.578,89.556,177.081
						L89.556,177.081z"/>
				</g>
			</g>
			<g>
				<g>
					<path fill="#00F4FF" d="M57.448,206.241c7.784,2.789,18.071-5.153,23.652-9.557c4.372-3.45,14.803-12.142,11.053-18.861
						c-0.393-0.704-1.472-0.074-1.079,0.631c3.583,6.422-8.291,15.409-12.429,18.565c-4.998,3.813-14.161,10.419-20.866,8.017
						C57.02,204.764,56.695,205.972,57.448,206.241L57.448,206.241z"/>
				</g>
			</g>
			<g>
				<g>
					<path fill="#00F4FF" d="M64.291,211.344c7.683,2.313,18.466,3.738,25.21-1.909c6.131-5.135,8.968-13.985,6.965-21.712
						c-0.202-0.78-1.408-0.449-1.205,0.332c1.819,7.019-0.643,14.661-5.729,19.729c-6.221,6.198-17.448,4.602-24.909,2.354
						C63.849,209.905,63.521,211.112,64.291,211.344L64.291,211.344z"/>
				</g>
			</g>
			<g>
				<g>
					<path fill="#00F4FF" d="M289.512,245.305c2.375,7.024,4.21,20.219-5.563,22.231c-0.678,0.14-0.508,0.992,0,1.205
						c8.749,3.679-0.372,11.095-4.55,13.747c-5.818,3.693-13.238,2.691-19.618,1.548c-0.687-0.123-1.103,0.747-0.481,1.143
						c10.723,6.824,30.848,11.077,40.386,0.179c9.683-11.063,1.854-31.126-8.128-39.161c-0.622-0.5-1.513,0.379-0.885,0.885
						c9.895,7.963,16.071,25.15,8.731,36.587c-7.738,12.056-29.721,6.639-39.474,0.431c-0.16,0.381-0.321,0.762-0.481,1.143
						c9.627,1.727,18.181,1.437,25.685-5.493c4.544-4.197,5.365-9.598-0.853-12.212c0,0.401,0,0.804,0,1.205
						c10.53-2.168,9.047-16.052,6.437-23.769C290.46,244.213,289.253,244.539,289.512,245.305L289.512,245.305z"/>
				</g>
			</g>
			<g>
				<g>
					<path fill="#00F4FF" d="M157.556,295.196c-5.894-4.739-15.192-6.494-21.535-1.438c-1.863,1.485-3.373,3.627-2.708,6.104
						c0.915,3.407,5.639,4.558,8.547,5.13c2.465,0.485,5.048,0.483,7.548,0.354c1.501-0.076,3.749-0.218,4.877-1.379
						c2.923-3.009-3.037-7.247-5.279-8.382c-2.488-1.259-6.939-2.047-9.121,0.249c-2.638,2.778,4.243,4.608,5.562,4.907
						c0.785,0.178,1.118-1.027,0.332-1.205c-1.536-0.348-3.047-0.735-4.396-1.578c-1.769-1.104,0.329-1.939,1.353-2.166
						c3.78-0.837,7.462,1.566,9.872,4.199c3.809,4.162-3.461,4.183-6.007,4.156c-3.4-0.035-6.981-0.519-9.969-2.251
						c-5.01-2.905-0.359-7.389,3.113-8.822c5.729-2.365,12.228-0.772,16.927,3.007C157.294,296.581,158.185,295.702,157.556,295.196
						L157.556,295.196z"/>
				</g>
			</g>
			<g>
				<g>
					<path fill="#00F4FF" d="M294.614,144.014c-7.529-0.524-14.423,4.5-19.52,9.521c-4.561,4.494-9.878,11.79-8.937,18.622
						c2.45,17.78,30.152,4.041,37.595-1.749c4.236-3.295,15.732-17.383,5.712-20.761c-7.945-2.678-19.33,3.1-25.687,7.408
						c-2.57,1.742-6.113,4.434-6.153,7.878c-0.045,3.967,6.283,5.267,9.117,5.497c5.905,0.48,12.742-2.471,13.269-9.113
						c0.574-7.243-8.928-3.047-11.712-1.22c-0.671,0.44-0.045,1.523,0.631,1.079c2.436-1.599,9.718-5.652,9.831,0.141
						c0.09,4.564-5.059,7.398-8.909,7.905c-3.244,0.428-13.403-0.98-10.307-6.439c2.213-3.9,7.306-6.377,11.176-8.227
						c4.648-2.221,9.903-3.99,15.095-4.112c5.173-0.122,7.194,2.917,5.523,7.747c-2.924,8.449-10.496,13.389-18.186,17.1
						c-7.189,3.469-25.032,9.007-25.815-4.105c-0.554-9.274,9.054-18.332,16.17-22.745c3.322-2.06,7.164-3.455,11.106-3.18
						C295.419,145.32,295.414,144.069,294.614,144.014L294.614,144.014z"/>
				</g>
			</g>
			<g>
				<g>
					<path fill="#00F4FF" d="M125.515,74.544c-4.513,0.358-9.121-0.008-12.145,3.878c-0.274,0.352-0.225,0.917,0.276,1.044
						c4.518,1.15,14.08,2.332,17.746-1.655c3.89-4.229-5.949-7.331-8.612-7.888c-5.955-1.245-14.576,0.18-18.077,5.681
						c-2.053,3.225,0.48,6.458,3.172,8.107c8.236,5.046,21.447,4.127,30.401,1.934c2.679-0.656,6.532-1.806,7.553-4.717
						c1.112-3.17-3.729-5.726-5.786-6.828c-0.71-0.381-1.341,0.698-0.631,1.079c1.864,1,6.901,3.553,4.71,6.308
						c-1.638,2.06-5.091,2.721-7.502,3.263c-7.341,1.649-15.569,1.584-22.882-0.139c-2.885-0.68-6.25-1.84-7.929-4.456
						c-4.225-6.582,9.459-9.229,13.067-9.323c3.727-0.097,7.149,1.089,10.316,2.961c5.262,3.11-2.962,4.858-5.04,5.129
						c-3.023,0.394-6.147,0.191-9.125-0.395c-0.292-0.058,3.401-2.055,4.071-2.196c2.055-0.435,4.323-0.373,6.416-0.539
						C126.313,75.73,126.319,74.48,125.515,74.544L125.515,74.544z"/>
				</g>
			</g>
		</g>
	</g>
</g>
</svg>
