<?xml version="1.0" encoding="utf-8"?>
<!-- Generator: Adobe Illustrator 16.0.0, SVG Export Plug-In . SVG Version: 6.00 Build 0)  -->
<!DOCTYPE svg PUBLIC "-//W3C//DTD SVG 1.1//EN" "http://www.w3.org/Graphics/SVG/1.1/DTD/svg11.dtd">
<svg version="1.1" id="Layer_1" xmlns="http://www.w3.org/2000/svg" xmlns:xlink="http://www.w3.org/1999/xlink" x="0px" y="0px"
	 width="362px" height="362px" viewBox="0 0 362 362" enable-background="new 0 0 362 362" xml:space="preserve">
<g>
	<rect fill="#272525" width="362" height="362"/>
	<g>
		<g>
			<g>
				<g>
					<path fill="#F1F1F2" d="M295.3,275.98c-1.798,6.773-4.834,13.115-6.868,19.813c-0.388,1.274,1.191,1.989,2.09,1.216
						c5.018-4.324,10.226-8.627,14.34-13.854c0.621-0.788,0.316-2.178-0.885-2.135c-6.635,0.24-13.305,0.203-19.895,1.093
						c-0.957,0.129-1.165,1.499-0.553,2.089c5.619,5.41,13.631,6.533,20.195,10.359c1.186,0.689,2.17-0.629,1.711-1.711
						c-2.463-5.795-5.391-11.375-7.853-17.172c-0.628-1.479-2.781-0.203-2.158,1.262c2.462,5.797,5.39,11.377,7.853,17.173
						c0.57-0.57,1.14-1.14,1.709-1.71c-6.348-3.699-14.277-4.758-19.688-9.969c-0.185,0.695-0.366,1.393-0.552,2.088
						c6.359-0.856,12.829-0.77,19.23-1.002c-0.295-0.711-0.59-1.422-0.885-2.133c-4.115,5.227-9.322,9.527-14.34,13.854
						c0.696,0.404,1.393,0.811,2.089,1.216c2.035-6.696,5.071-13.04,6.868-19.813C298.124,275.085,295.713,274.423,295.3,275.98
						L295.3,275.98z"/>
				</g>
			</g>
			<g>
				<g>
					<path fill="#F1F1F2" d="M73.883,219.646c6.901,0.824,12.946,4.44,19.667,5.955c1.258,0.282,2.037-1.144,1.216-2.09
						c-4.128-4.762-9.219-8.599-14-12.668c-0.802-0.683-2.134-0.271-2.134,0.885c0,5.11,0,10.223,0,15.334
						c0,1.188,1.32,1.521,2.134,0.883c5.484-4.303,9.405-10.049,13.529-15.586c0.615-0.825-0.238-1.821-1.079-1.881
						c-7.062-0.504-14.05,2.582-19.965,6.17c-1.376,0.834-0.121,2.998,1.262,2.158c5.563-3.373,12.057-6.303,18.703-5.828
						c-0.36-0.627-0.72-1.254-1.079-1.881c-4.005,5.377-7.816,10.903-13.139,15.08c0.711,0.295,1.422,0.59,2.134,0.885
						c0-5.111,0-10.224,0-15.334c-0.711,0.295-1.422,0.588-2.134,0.883c4.781,4.07,9.872,7.906,14,12.669
						c0.405-0.696,0.811-1.394,1.216-2.089c-6.959-1.567-13.18-5.19-20.333-6.045C72.284,216.955,72.303,219.458,73.883,219.646
						L73.883,219.646z"/>
				</g>
			</g>
			<g>
				<g>
					<path fill="#F1F1F2" d="M234.734,248.182c-3.604-0.715-7.225-1.353-10.668-2.668c-0.522-0.201-0.978,0.479-0.705,0.918
						c2.019,3.258,4.648,6.074,6.666,9.334c0.268,0.43,1.033,0.406,1.144-0.149c0.705-3.573,1.31-7.183,1.354-10.832
						c0.008-0.543-0.688-0.83-1.066-0.442c-3.004,3.074-5.348,6.639-8,10c-0.332,0.424-0.043,1.314,0.607,1.045
						c3.404-1.408,6.599-3.26,10-4.668c0.734-0.304,0.414-1.514-0.332-1.205c-3.402,1.408-6.598,3.26-10,4.668
						c0.203,0.348,0.406,0.696,0.608,1.045c2.649-3.359,4.998-6.93,8-10c-0.356-0.146-0.712-0.295-1.067-0.441
						c-0.045,3.541-0.627,7.033-1.311,10.5c0.381-0.051,0.762-0.1,1.143-0.149c-2.019-3.259-4.648-6.075-6.666-9.334
						c-0.235,0.306-0.471,0.612-0.707,0.918c3.443,1.316,7.064,1.954,10.668,2.669C235.189,249.542,235.523,248.337,234.734,248.182
						L234.734,248.182z"/>
				</g>
			</g>
			<g>
				<g>
					<g>
						<path fill="#F1F1F2" d="M322.906,217.896c2.418-0.367,4.783-1,7.199-1.371c0.795-0.121,0.457-1.325-0.332-1.205
							c-2.416,0.369-4.782,1.004-7.199,1.371C321.779,216.813,322.118,218.018,322.906,217.896L322.906,217.896z"/>
					</g>
				</g>
				<g>
					<g>
						<path fill="#F1F1F2" d="M326.596,214.045c-0.688,1.713-1.402,3.398-2.339,4.993c-0.409,0.696,0.673,1.325,1.08,0.631
							c0.99-1.687,1.737-3.479,2.463-5.292C328.1,213.628,326.891,213.307,326.596,214.045L326.596,214.045z"/>
					</g>
				</g>
				<g>
					<g>
						<path fill="#F1F1F2" d="M323.604,215.841c1.754,0.392,3.246,1.339,4.522,2.584c0.578,0.562,1.463-0.321,0.886-0.885
							c-1.425-1.386-3.121-2.47-5.076-2.904C323.148,214.461,322.814,215.666,323.604,215.841L323.604,215.841z"/>
					</g>
				</g>
			</g>
			<g>
				<g>
					<g>
						<path fill="#F1F1F2" d="M273.334,175.578c3.52-0.536,7.055-1.525,10.634-1.058c0.798,0.104,0.787-1.147,0-1.25
							c-3.686-0.481-7.345,0.551-10.966,1.103C272.207,174.493,272.546,175.698,273.334,175.578L273.334,175.578z"/>
					</g>
				</g>
				<g>
					<g>
						<path fill="#F1F1F2" d="M276.346,169.201c1.198,3.838,3.856,6.67,6.641,9.457c0.57,0.571,1.453-0.313,0.885-0.884
							c-2.623-2.625-5.188-5.281-6.32-8.905C277.311,168.102,276.104,168.429,276.346,169.201L276.346,169.201z"/>
					</g>
				</g>
				<g>
					<g>
						<path fill="#F1F1F2" d="M281.365,169.673c-2.153,2.762-3.786,5.879-5.939,8.64c-0.488,0.627,0.389,1.519,0.885,0.884
							c2.153-2.762,3.787-5.879,5.939-8.64C282.739,169.929,281.861,169.038,281.365,169.673L281.365,169.673z"/>
					</g>
				</g>
			</g>
			<g>
				<g>
					<g>
						<path fill="#F1F1F2" d="M214.057,171.541c0.438,2.424,1.188,4.776,1.627,7.2c0.145,0.792,1.349,0.456,1.205-0.332
							c-0.438-2.424-1.188-4.776-1.627-7.2C215.117,170.416,213.913,170.753,214.057,171.541L214.057,171.541z"/>
					</g>
				</g>
				<g>
					<g>
						<path fill="#F1F1F2" d="M218.488,175.229c-2.027-0.683-4.037-1.387-5.959-2.336c-0.719-0.356-1.354,0.722-0.631,1.079
							c2.019,0.997,4.127,1.745,6.258,2.462C218.922,176.692,219.248,175.485,218.488,175.229L218.488,175.229z"/>
					</g>
				</g>
				<g>
					<g>
						<path fill="#F1F1F2" d="M216.499,172.238c-0.481,1.836-1.685,3.302-3.099,4.524c-0.609,0.528,0.279,1.409,0.886,0.884
							c1.569-1.358,2.884-3.041,3.418-5.076C217.909,171.79,216.703,171.458,216.499,172.238L216.499,172.238z"/>
					</g>
				</g>
			</g>
			<g>
				<g>
					<g>
						<path fill="#F1F1F2" d="M317.941,133.38c-1.898,2.756-3.518,5.69-5.416,8.445c-0.459,0.666,0.625,1.29,1.08,0.631
							c1.897-2.755,3.518-5.689,5.416-8.445C319.479,133.346,318.396,132.721,317.941,133.38L317.941,133.38z"/>
					</g>
				</g>
				<g>
					<g>
						<path fill="#F1F1F2" d="M317.645,140.386c-0.894-2.088-1.726-4.18-2.27-6.39c-0.191-0.783-1.396-0.451-1.205,0.332
							c0.569,2.314,1.459,4.502,2.395,6.688C316.88,141.756,317.956,141.119,317.645,140.386L317.645,140.386z"/>
					</g>
				</g>
				<g>
					<g>
						<path fill="#F1F1F2" d="M319.034,135.843c-1.978,1.49-4.249,2.314-6.688,2.661c-0.796,0.113-0.455,1.317,0.332,1.205
							c2.533-0.359,4.936-1.24,6.986-2.787C320.3,136.443,319.68,135.357,319.034,135.843L319.034,135.843z"/>
					</g>
				</g>
			</g>
			<g>
				<g>
					<path fill="#F1F1F2" d="M251.072,133.486c-0.34,4.906-0.592,9.825-1.557,14.658c-0.119,0.594,0.577,1.071,1.045,0.608
						c3.101-3.083,5.531-6.747,8.633-9.831c0.313-0.312,0.195-0.954-0.276-1.044c-3.612-0.693-7.25-1.249-10.938-1.064
						c-0.563,0.028-0.803,0.651-0.441,1.067c3.273,3.769,7.15,6.839,10.783,10.234c0.424,0.395,1.283,0.012,1.046-0.608
						c-1.736-4.522-3.933-8.848-5.668-13.369c-0.286-0.745-1.494-0.421-1.205,0.332c1.735,4.522,3.932,8.848,5.668,13.369
						c0.348-0.203,0.696-0.405,1.045-0.608c-3.636-3.396-7.513-6.465-10.784-10.234c-0.146,0.355-0.295,0.711-0.441,1.067
						c3.58-0.179,7.098,0.346,10.605,1.02c-0.092-0.348-0.184-0.696-0.275-1.044c-3.102,3.084-5.531,6.747-8.633,9.831
						c0.348,0.203,0.696,0.405,1.045,0.608c0.987-4.942,1.254-9.972,1.602-14.99C252.378,132.681,251.128,132.687,251.072,133.486
						L251.072,133.486z"/>
				</g>
			</g>
			<g>
				<g>
					<g>
						<path fill="#F1F1F2" d="M65.474,296.165c-2.157-2.735-4.813-5.284-6.129-8.569c-0.296-0.738-1.505-0.416-1.205,0.332
							c1.405,3.508,4.147,6.199,6.45,9.122C65.089,297.684,65.967,296.791,65.474,296.165L65.474,296.165z"/>
					</g>
				</g>
				<g>
					<g>
						<path fill="#F1F1F2" d="M58.442,296.71c2.735-2.955,3.88-6.646,4.923-10.452c0.213-0.777-0.992-1.107-1.205-0.332
							c-0.982,3.581-2.021,7.112-4.602,9.899C57.012,296.416,57.894,297.303,58.442,296.71L58.442,296.71z"/>
					</g>
				</g>
				<g>
					<g>
						<path fill="#F1F1F2" d="M56.364,292.114c3.467,0.493,6.981,0.385,10.447,0.877c0.788,0.112,1.127-1.093,0.332-1.205
							c-3.467-0.492-6.981-0.386-10.447-0.877C55.908,290.797,55.569,292.001,56.364,292.114L56.364,292.114z"/>
					</g>
				</g>
			</g>
			<g>
				<g>
					<g>
						<path fill="#F1F1F2" d="M125.741,286.768c-0.739-2.35-1.778-4.588-2.519-6.938c-0.241-0.766-1.448-0.438-1.205,0.332
							c0.74,2.35,1.779,4.589,2.519,6.938C124.777,287.866,125.984,287.538,125.741,286.768L125.741,286.768z"/>
					</g>
				</g>
				<g>
					<g>
						<path fill="#F1F1F2" d="M120.777,283.575c2.15,0.434,4.284,0.897,6.361,1.612c0.764,0.265,1.089-0.943,0.332-1.205
							c-2.077-0.717-4.21-1.18-6.361-1.612C120.323,282.211,119.987,283.416,120.777,283.575L120.777,283.575z"/>
					</g>
				</g>
				<g>
					<g>
						<path fill="#F1F1F2" d="M123.21,286.221c0.24-1.806,1.253-3.397,2.447-4.729c0.536-0.6-0.345-1.485-0.884-0.885
							c-1.442,1.607-2.525,3.449-2.813,5.613C121.854,287.018,123.105,287.008,123.21,286.221L123.21,286.221z"/>
					</g>
				</g>
			</g>
			<g>
				<g>
					<path fill="#F1F1F2" d="M93.771,329.172c-0.282-4.967-0.645-9.934-0.294-14.906c0.036-0.514-0.732-0.871-1.067-0.441
						c-2.689,3.45-4.642,7.389-7.331,10.836c-0.335,0.431-0.14,1.03,0.442,1.066c3.677,0.235,7.344,0.308,10.984-0.339
						c0.458-0.081,0.608-0.747,0.276-1.045c-3.759-3.364-8.033-5.954-12.109-8.897c-0.54-0.391-1.129,0.346-0.855,0.854
						c2.29,4.27,5.011,8.284,7.301,12.553c0.381,0.712,1.46,0.079,1.079-0.631c-2.29-4.269-5.011-8.284-7.301-12.553
						c-0.285,0.285-0.57,0.57-0.855,0.855c3.988,2.881,8.177,5.408,11.856,8.702c0.092-0.349,0.184-0.696,0.276-1.045
						c-3.526,0.625-7.094,0.521-10.652,0.294c0.147,0.355,0.294,0.711,0.442,1.067c2.69-3.449,4.643-7.388,7.331-10.836
						c-0.355-0.147-0.711-0.295-1.067-0.442c-0.351,4.974,0.012,9.939,0.294,14.906C92.566,329.973,93.816,329.978,93.771,329.172
						L93.771,329.172z"/>
				</g>
			</g>
			<g>
				<g>
					<g>
						<path fill="#F1F1F2" d="M80.437,109.653c-1.559-1.908-3.371-3.587-4.93-5.495c-0.51-0.625-1.389,0.265-0.884,0.884
							c1.559,1.908,3.371,3.587,4.93,5.495C80.063,111.162,80.942,110.272,80.437,109.653L80.437,109.653z"/>
					</g>
				</g>
				<g>
					<g>
						<path fill="#F1F1F2" d="M74.789,108.591c2.102-0.391,4.199-0.75,6.337-0.858c0.802-0.041,0.806-1.291,0-1.25
							c-2.25,0.115-4.458,0.492-6.669,0.903C73.665,107.533,74.001,108.738,74.789,108.591L74.789,108.591z"/>
					</g>
				</g>
				<g>
					<g>
						<path fill="#F1F1F2" d="M77.962,110.221c-0.462-1.844-0.125-3.687,0.507-5.447c0.273-0.76-0.935-1.085-1.205-0.332
							c-0.708,1.971-1.022,4.056-0.507,6.111C76.953,111.335,78.158,111.003,77.962,110.221L77.962,110.221z"/>
					</g>
				</g>
			</g>
			<g>
				<g>
					<g>
						<path fill="#F1F1F2" d="M34.895,193.58c0.311-3.332,0.306-6.682,0.616-10.014c0.075-0.803-1.176-0.797-1.25,0
							c-0.311,3.332-0.306,6.682-0.616,10.014C33.57,194.383,34.82,194.376,34.895,193.58L34.895,193.58z"/>
					</g>
				</g>
				<g>
					<g>
						<path fill="#F1F1F2" d="M31.618,187.23c1.838,1.422,3.638,2.869,5.222,4.576c0.549,0.592,1.431-0.293,0.884-0.885
							c-1.583-1.707-3.384-3.154-5.222-4.576C31.873,185.859,30.98,186.738,31.618,187.23L31.618,187.23z"/>
					</g>
				</g>
				<g>
					<g>
						<path fill="#F1F1F2" d="M32.742,191.973c0.961-2.201,2.509-4.043,4.42-5.484c0.635-0.479,0.013-1.565-0.631-1.08
							c-2.082,1.572-3.817,3.527-4.869,5.934C31.343,192.072,32.42,192.709,32.742,191.973L32.742,191.973z"/>
					</g>
				</g>
			</g>
			<g>
				<g>
					<g>
						<path fill="#F1F1F2" d="M215.051,326.786c-2.113,1.265-4.044,2.807-6.158,4.07c-0.691,0.412-0.063,1.493,0.631,1.079
							c2.115-1.264,4.045-2.806,6.158-4.069C216.372,327.453,215.744,326.372,215.051,326.786L215.051,326.786z"/>
					</g>
				</g>
				<g>
					<g>
						<path fill="#F1F1F2" d="M213.118,332.332c-0.08-2.192-0.128-4.376,0.084-6.563c0.077-0.803-1.173-0.795-1.25,0
							c-0.212,2.188-0.164,4.37-0.084,6.563C211.896,333.136,213.146,333.139,213.118,332.332L213.118,332.332z"/>
					</g>
				</g>
				<g>
					<g>
						<path fill="#F1F1F2" d="M215.268,329.352c-1.895,0.19-3.67-0.374-5.326-1.265c-0.709-0.382-1.34,0.698-0.631,1.08
							c1.834,0.985,3.855,1.646,5.957,1.435C216.063,330.521,216.068,329.271,215.268,329.352L215.268,329.352z"/>
					</g>
				</g>
			</g>
			<g>
				<g>
					<g>
						<path fill="#F1F1F2" d="M173.532,33.357c2.417-0.369,4.783-1.002,7.2-1.371c0.795-0.121,0.456-1.326-0.332-1.205
							c-2.417,0.369-4.783,1.002-7.2,1.371C172.405,32.273,172.744,33.478,173.532,33.357L173.532,33.357z"/>
					</g>
				</g>
				<g>
					<g>
						<path fill="#F1F1F2" d="M177.221,29.502c-0.686,1.713-1.401,3.4-2.336,4.994c-0.409,0.697,0.672,1.326,1.079,0.631
							c0.99-1.687,1.737-3.48,2.462-5.293C178.726,29.085,177.516,28.764,177.221,29.502L177.221,29.502z"/>
					</g>
				</g>
				<g>
					<g>
						<path fill="#F1F1F2" d="M174.229,31.299c1.755,0.39,3.245,1.339,4.524,2.583c0.578,0.562,1.463-0.321,0.884-0.884
							c-1.424-1.384-3.12-2.47-5.076-2.904C173.776,29.92,173.442,31.125,174.229,31.299L174.229,31.299z"/>
					</g>
				</g>
			</g>
			<g>
				<g>
					<g>
						<path fill="#F1F1F2" d="M146.723,149.993c3.52-0.536,7.054-1.525,10.634-1.058c0.798,0.104,0.788-1.147,0-1.25
							c-3.685-0.481-7.345,0.551-10.966,1.103C145.596,148.908,145.935,150.113,146.723,149.993L146.723,149.993z"/>
					</g>
				</g>
				<g>
					<g>
						<path fill="#F1F1F2" d="M149.733,143.617c1.199,3.838,3.856,6.669,6.641,9.456c0.57,0.571,1.454-0.313,0.884-0.884
							c-2.622-2.624-5.188-5.281-6.32-8.904C150.699,142.518,149.492,142.845,149.733,143.617L149.733,143.617z"/>
					</g>
				</g>
				<g>
					<g>
						<path fill="#F1F1F2" d="M154.754,144.089c-2.154,2.762-3.787,5.878-5.939,8.64c-0.489,0.627,0.389,1.519,0.884,0.884
							c2.153-2.762,3.787-5.879,5.939-8.64C156.128,144.345,155.25,143.454,154.754,144.089L154.754,144.089z"/>
					</g>
				</g>
			</g>
			<g>
				<g>
					<g>
						<path fill="#F1F1F2" d="M289.422,53.326c-4.468-0.047-9.027,0.37-13.412-0.68c-0.783-0.188-1.115,1.018-0.332,1.205
							c4.504,1.078,9.156,0.676,13.744,0.725C290.229,54.584,290.229,53.334,289.422,53.326L289.422,53.326z"/>
					</g>
				</g>
				<g>
					<g>
						<path fill="#F1F1F2" d="M284.545,59.053c-1.048-4.234-4.081-7.386-7.021-10.441c-0.561-0.582-1.442,0.303-0.885,0.884
							c2.791,2.9,5.704,5.867,6.7,9.889C283.533,60.167,284.738,59.835,284.545,59.053L284.545,59.053z"/>
					</g>
				</g>
				<g>
					<g>
						<path fill="#F1F1F2" d="M278.479,57.792c3.002-2.348,5.519-5.24,8.521-7.59c0.634-0.497-0.258-1.375-0.886-0.884
							c-3,2.349-5.516,5.241-8.52,7.59C276.961,57.404,277.852,58.282,278.479,57.792L278.479,57.792z"/>
					</g>
				</g>
			</g>
		</g>
	</g>
</g>
</svg>
