<?xml version="1.0" encoding="utf-8"?>
<!-- Generator: Adobe Illustrator 16.0.0, SVG Export Plug-In . SVG Version: 6.00 Build 0)  -->
<!DOCTYPE svg PUBLIC "-//W3C//DTD SVG 1.1//EN" "http://www.w3.org/Graphics/SVG/1.1/DTD/svg11.dtd">
<svg version="1.1" id="Layer_1" xmlns="http://www.w3.org/2000/svg" xmlns:xlink="http://www.w3.org/1999/xlink" x="0px" y="0px"
	 width="362px" height="362px" viewBox="0 0 362 362" enable-background="new 0 0 362 362" xml:space="preserve">
<g>
	<rect fill="#18082B" width="362" height="362"/>
	<g>
		<g>
			<g>
				<g>
					<g>
						<path fill="#FFFFFF" d="M322.906,217.898c2.417-0.369,4.783-1.002,7.2-1.371c0.795-0.121,0.456-1.325-0.332-1.205
							c-2.417,0.368-4.783,1.002-7.2,1.371C321.779,216.814,322.118,218.019,322.906,217.898L322.906,217.898z"/>
					</g>
				</g>
				<g>
					<g>
						<path fill="#FFFFFF" d="M326.595,214.045c-0.686,1.713-1.401,3.399-2.338,4.993c-0.409,0.696,0.672,1.325,1.08,0.631
							c0.99-1.687,1.737-3.479,2.463-5.292C328.1,213.628,326.891,213.306,326.595,214.045L326.595,214.045z"/>
					</g>
				</g>
				<g>
					<g>
						<path fill="#FFFFFF" d="M323.603,215.842c1.755,0.39,3.245,1.338,4.523,2.583c0.578,0.562,1.463-0.321,0.885-0.885
							c-1.424-1.385-3.12-2.47-5.076-2.903C323.149,214.462,322.815,215.667,323.603,215.842L323.603,215.842z"/>
					</g>
				</g>
			</g>
			<g>
				<g>
					<g>
						<path fill="#FFFFFF" d="M273.334,175.578c3.52-0.535,7.054-1.525,10.634-1.058c0.798,0.104,0.787-1.147,0-1.25
							c-3.686-0.481-7.345,0.551-10.966,1.103C272.207,174.494,272.546,175.698,273.334,175.578L273.334,175.578z"/>
					</g>
				</g>
				<g>
					<g>
						<path fill="#FFFFFF" d="M276.345,169.201c1.199,3.838,3.857,6.67,6.641,9.457c0.57,0.571,1.454-0.313,0.885-0.884
							c-2.623-2.625-5.188-5.281-6.32-8.905C277.311,168.103,276.104,168.43,276.345,169.201L276.345,169.201z"/>
					</g>
				</g>
				<g>
					<g>
						<path fill="#FFFFFF" d="M281.365,169.673c-2.153,2.762-3.786,5.879-5.939,8.64c-0.489,0.627,0.389,1.519,0.885,0.884
							c2.153-2.762,3.786-5.879,5.939-8.64C282.739,169.93,281.861,169.038,281.365,169.673L281.365,169.673z"/>
					</g>
				</g>
			</g>
			<g>
				<g>
					<g>
						<path fill="#FFFFFF" d="M214.056,171.541c0.438,2.424,1.188,4.776,1.628,7.2c0.144,0.792,1.348,0.456,1.205-0.332
							c-0.439-2.424-1.189-4.776-1.628-7.2C215.117,170.417,213.913,170.753,214.056,171.541L214.056,171.541z"/>
					</g>
				</g>
				<g>
					<g>
						<path fill="#FFFFFF" d="M218.488,175.229c-2.027-0.683-4.037-1.387-5.958-2.336c-0.72-0.356-1.354,0.722-0.631,1.079
							c2.018,0.997,4.127,1.745,6.257,2.462C218.922,176.693,219.248,175.485,218.488,175.229L218.488,175.229z"/>
					</g>
				</g>
				<g>
					<g>
						<path fill="#FFFFFF" d="M216.499,172.238c-0.482,1.836-1.685,3.302-3.098,4.524c-0.61,0.528,0.278,1.409,0.885,0.884
							c1.569-1.358,2.884-3.041,3.418-5.076C217.909,171.79,216.703,171.459,216.499,172.238L216.499,172.238z"/>
					</g>
				</g>
			</g>
			<g>
				<g>
					<g>
						<path fill="#FFFFFF" d="M317.941,133.381c-1.898,2.756-3.517,5.69-5.416,8.445c-0.458,0.666,0.626,1.29,1.08,0.631
							c1.898-2.755,3.518-5.689,5.416-8.445C319.479,133.346,318.396,132.722,317.941,133.381L317.941,133.381z"/>
					</g>
				</g>
				<g>
					<g>
						<path fill="#FFFFFF" d="M317.644,140.387c-0.893-2.088-1.725-4.18-2.269-6.39c-0.192-0.783-1.397-0.451-1.205,0.332
							c0.569,2.314,1.459,4.502,2.394,6.688C316.88,141.757,317.956,141.119,317.644,140.387L317.644,140.387z"/>
					</g>
				</g>
				<g>
					<g>
						<path fill="#FFFFFF" d="M319.034,135.843c-1.977,1.49-4.249,2.314-6.688,2.661c-0.796,0.113-0.456,1.317,0.332,1.205
							c2.533-0.359,4.935-1.24,6.986-2.787C320.3,136.444,319.679,135.357,319.034,135.843L319.034,135.843z"/>
					</g>
				</g>
			</g>
			<g>
				<g>
					<g>
						<path fill="#FFFFFF" d="M65.474,296.167c-2.157-2.736-4.813-5.283-6.129-8.569c-0.296-0.738-1.505-0.417-1.205,0.332
							c1.405,3.507,4.147,6.199,6.451,9.122C65.089,297.685,65.967,296.793,65.474,296.167L65.474,296.167z"/>
					</g>
				</g>
				<g>
					<g>
						<path fill="#FFFFFF" d="M58.442,296.712c2.734-2.957,3.88-6.647,4.923-10.454c0.213-0.778-0.992-1.108-1.205-0.332
							c-0.982,3.582-2.022,7.112-4.602,9.901C57.012,296.418,57.894,297.305,58.442,296.712L58.442,296.712z"/>
					</g>
				</g>
				<g>
					<g>
						<path fill="#FFFFFF" d="M56.364,292.114c3.467,0.494,6.981,0.387,10.447,0.879c0.788,0.112,1.127-1.092,0.332-1.205
							c-3.467-0.492-6.981-0.385-10.447-0.879C55.908,290.797,55.569,292.001,56.364,292.114L56.364,292.114z"/>
					</g>
				</g>
			</g>
			<g>
				<g>
					<g>
						<path fill="#FFFFFF" d="M125.741,286.77c-0.74-2.35-1.779-4.59-2.519-6.939c-0.241-0.767-1.448-0.438-1.205,0.332
							c0.74,2.35,1.779,4.59,2.519,6.939C124.777,287.868,125.984,287.54,125.741,286.77L125.741,286.77z"/>
					</g>
				</g>
				<g>
					<g>
						<path fill="#FFFFFF" d="M120.777,283.575c2.15,0.436,4.285,0.897,6.361,1.615c0.764,0.265,1.089-0.943,0.332-1.205
							c-2.077-0.718-4.211-1.181-6.361-1.615C120.323,282.211,119.987,283.416,120.777,283.575L120.777,283.575z"/>
					</g>
				</g>
				<g>
					<g>
						<path fill="#FFFFFF" d="M123.21,286.221c0.24-1.806,1.252-3.397,2.447-4.728c0.537-0.599-0.344-1.485-0.884-0.885
							c-1.442,1.607-2.525,3.448-2.813,5.612C121.854,287.018,123.105,287.008,123.21,286.221L123.21,286.221z"/>
					</g>
				</g>
			</g>
			<g>
				<g>
					<g>
						<path fill="#FFFFFF" d="M80.437,36.972c-1.559-1.908-3.371-3.587-4.93-5.495c-0.51-0.625-1.389,0.265-0.884,0.884
							c1.559,1.908,3.371,3.587,4.93,5.495C80.063,38.48,80.942,37.591,80.437,36.972L80.437,36.972z"/>
					</g>
				</g>
				<g>
					<g>
						<path fill="#FFFFFF" d="M74.789,35.91c2.102-0.391,4.199-0.75,6.337-0.858c0.802-0.041,0.806-1.291,0-1.25
							c-2.25,0.115-4.458,0.492-6.669,0.903C73.665,34.852,74.001,36.057,74.789,35.91L74.789,35.91z"/>
					</g>
				</g>
				<g>
					<g>
						<path fill="#FFFFFF" d="M77.962,37.54c-0.462-1.844-0.125-3.687,0.507-5.447c0.273-0.76-0.935-1.085-1.205-0.332
							c-0.708,1.971-1.022,4.056-0.507,6.111C76.953,38.654,78.158,38.322,77.962,37.54L77.962,37.54z"/>
					</g>
				</g>
			</g>
			<g>
				<g>
					<g>
						<path fill="#FFFFFF" d="M34.895,193.58c0.311-3.332,0.306-6.682,0.616-10.014c0.075-0.803-1.176-0.796-1.25,0
							c-0.311,3.332-0.306,6.682-0.616,10.014C33.57,194.383,34.82,194.376,34.895,193.58L34.895,193.58z"/>
					</g>
				</g>
				<g>
					<g>
						<path fill="#FFFFFF" d="M31.618,187.232c1.838,1.42,3.638,2.868,5.222,4.576c0.549,0.592,1.431-0.294,0.884-0.885
							c-1.583-1.707-3.383-3.155-5.222-4.576C31.872,185.862,30.98,186.739,31.618,187.232L31.618,187.232z"/>
					</g>
				</g>
				<g>
					<g>
						<path fill="#FFFFFF" d="M32.742,191.973c0.962-2.201,2.509-4.042,4.42-5.485c0.635-0.479,0.013-1.566-0.631-1.08
							c-2.082,1.572-3.817,3.528-4.869,5.935C31.343,192.073,32.42,192.71,32.742,191.973L32.742,191.973z"/>
					</g>
				</g>
			</g>
			<g>
				<g>
					<g>
						<path fill="#FFFFFF" d="M215.051,326.788c-2.115,1.264-4.045,2.806-6.159,4.07c-0.69,0.414-0.063,1.495,0.631,1.08
							c2.114-1.266,4.044-2.808,6.159-4.07C216.373,327.455,215.744,326.374,215.051,326.788L215.051,326.788z"/>
					</g>
				</g>
				<g>
					<g>
						<path fill="#FFFFFF" d="M213.118,332.332c-0.08-2.192-0.128-4.376,0.084-6.563c0.078-0.803-1.173-0.795-1.25,0
							c-0.212,2.187-0.164,4.37-0.084,6.563C211.897,333.136,213.147,333.139,213.118,332.332L213.118,332.332z"/>
					</g>
				</g>
				<g>
					<g>
						<path fill="#FFFFFF" d="M215.268,329.352c-1.895,0.192-3.671-0.372-5.326-1.263c-0.71-0.381-1.341,0.698-0.631,1.08
							c1.833,0.985,3.856,1.646,5.957,1.433C216.062,330.521,216.069,329.271,215.268,329.352L215.268,329.352z"/>
					</g>
				</g>
			</g>
			<g>
				<g>
					<g>
						<path fill="#FFFFFF" d="M173.532,33.357c2.417-0.369,4.783-1.002,7.2-1.371c0.795-0.121,0.456-1.326-0.332-1.205
							c-2.417,0.369-4.783,1.002-7.2,1.371C172.405,32.273,172.744,33.478,173.532,33.357L173.532,33.357z"/>
					</g>
				</g>
				<g>
					<g>
						<path fill="#FFFFFF" d="M177.221,29.503c-0.686,1.713-1.401,3.4-2.336,4.994c-0.409,0.697,0.672,1.326,1.079,0.631
							c0.99-1.687,1.737-3.48,2.462-5.293C178.726,29.086,177.516,28.764,177.221,29.503L177.221,29.503z"/>
					</g>
				</g>
				<g>
					<g>
						<path fill="#FFFFFF" d="M174.229,31.3c1.755,0.39,3.245,1.339,4.524,2.583c0.578,0.562,1.463-0.321,0.884-0.884
							c-1.424-1.384-3.12-2.47-5.076-2.904C173.776,29.92,173.442,31.125,174.229,31.3L174.229,31.3z"/>
					</g>
				</g>
			</g>
			<g>
				<g>
					<g>
						<path fill="#FFFFFF" d="M114.685,117.955c3.52-0.535,7.054-1.525,10.634-1.058c0.797,0.104,0.788-1.147,0-1.25
							c-3.685-0.481-7.345,0.551-10.966,1.103C113.558,116.871,113.896,118.075,114.685,117.955L114.685,117.955z"/>
					</g>
				</g>
				<g>
					<g>
						<path fill="#FFFFFF" d="M117.695,111.579c1.199,3.838,3.856,6.669,6.641,9.456c0.57,0.571,1.454-0.313,0.884-0.884
							c-2.622-2.624-5.188-5.281-6.32-8.904C118.661,110.48,117.454,110.808,117.695,111.579L117.695,111.579z"/>
					</g>
				</g>
				<g>
					<g>
						<path fill="#FFFFFF" d="M122.716,112.051c-2.154,2.762-3.787,5.878-5.939,8.64c-0.489,0.627,0.389,1.519,0.884,0.884
							c2.153-2.762,3.787-5.879,5.939-8.64C124.089,112.308,123.211,111.416,122.716,112.051L122.716,112.051z"/>
					</g>
				</g>
			</g>
			<g>
				<g>
					<g>
						<path fill="#FFFFFF" d="M289.422,53.326c-4.468-0.047-9.027,0.37-13.412-0.68c-0.783-0.188-1.116,1.018-0.332,1.205
							c4.503,1.078,9.156,0.676,13.744,0.725C290.229,54.584,290.228,53.334,289.422,53.326L289.422,53.326z"/>
					</g>
				</g>
				<g>
					<g>
						<path fill="#FFFFFF" d="M284.545,59.054c-1.048-4.234-4.081-7.386-7.021-10.441c-0.561-0.582-1.443,0.303-0.885,0.884
							c2.791,2.9,5.704,5.867,6.7,9.889C283.533,60.168,284.738,59.836,284.545,59.054L284.545,59.054z"/>
					</g>
				</g>
				<g>
					<g>
						<path fill="#FFFFFF" d="M278.479,57.792c3.002-2.348,5.518-5.24,8.52-7.59c0.634-0.497-0.258-1.375-0.885-0.884
							c-3.001,2.349-5.517,5.241-8.52,7.59C276.961,57.405,277.852,58.283,278.479,57.792L278.479,57.792z"/>
					</g>
				</g>
			</g>
			<g>
				<g>
					<path fill="#FFFFFF" d="M81.013,206.716c-6.559,4.469-6.257,12.866-1.514,18.69c5.333,6.547,13.462,7.821,19.799,1.915
						c12.25-11.417-6.562-33.617-19.039-20.91c-1.13,1.15,0.637,2.919,1.768,1.768c9.503-9.678,23.197,5.387,16.983,15.588
						c-8.891,14.597-29.165-6.424-16.736-14.893C83.598,207.973,82.349,205.805,81.013,206.716L81.013,206.716z"/>
				</g>
			</g>
			<g>
				<g>
					<path fill="#FFFFFF" d="M77.913,212.628c0.842-5.14,5.505-8.476,9.172-11.724c4.938-4.374,10.034-8.395,15.592-11.961
						c10.113-6.49,21.262-11.241,32.281-15.942c0.739-0.315,0.102-1.392-0.631-1.079c-12.052,5.141-24.022,10.451-34.981,17.701
						c-5.016,3.318-9.53,7.195-14.022,11.174c-3.591,3.181-7.796,6.493-8.616,11.499C76.579,213.084,77.783,213.422,77.913,212.628
						L77.913,212.628z"/>
				</g>
			</g>
			<g>
				<g>
					<path fill="#FFFFFF" d="M90.477,216.064c11.792-3.224,22.061-9.685,32.149-16.396c0.667-0.444,0.042-1.527-0.631-1.08
						c-10,6.652-20.154,13.073-31.851,16.271C89.368,215.071,89.698,216.277,90.477,216.064L90.477,216.064z"/>
				</g>
			</g>
			<g>
				<g>
					<path fill="#FFFFFF" d="M90.977,231.087c13.112-1.164,25.038-9.075,36.091-15.641c12.167-7.226,22.908-16.755,32.018-27.542
						c0.517-0.612-0.363-1.501-0.884-0.885c-8.735,10.345-18.861,19.221-30.311,26.457c-10.944,6.916-23.78,15.194-36.915,16.36
						C90.18,229.907,90.173,231.158,90.977,231.087L90.977,231.087z"/>
				</g>
			</g>
			<g>
				<g>
					<path fill="#FFFFFF" d="M285.269,254.462c-0.014-0.939,0.556-7.476,0.106-7.854c1.549,1.301,2.435,3.648,3.585,5.292
						c1.512,2.16,3.773,2.733,6.269,2.529c1.837-0.15,3.68-0.949,5.396-1.563c0.811-0.302,1.627-0.584,2.45-0.847
						c-0.255,0.085-1.688,2.943-1.929,3.293c-2.044,2.97-2.702,5.319-1.046,8.594c0.471,0.93,4.252,4.834,2.467,4.581
						c-1.994-0.282-4.02-2.292-5.716-3.295c-1.921-1.137-3.893-0.842-5.609,0.432c-2.457,1.822-4.079,5.116-5.631,7.654
						c-0.396,0.653-0.8,1.302-1.21,1.946c-1.64,2.603-0.424-3.224-0.452-3.015c0.347-2.49,1.017-4.916,1.32-7.416
						c0.03-0.253-0.212-0.561-0.459-0.603c-1.653-0.284-3.171-0.372-4.859-0.356c-0.675,0.007-7.307,0.183-6.141-1.047
						c3.037-3.204,8.145-4.449,11.816-6.787c0.678-0.432,0.052-1.514-0.631-1.08c-4.396,2.8-9.47,4.24-13.127,8.098
						c-0.353,0.372-0.151,0.867,0.276,1.045c2.058,0.856,11.982,0.504,11.479,3.357c-0.635,3.6-1.526,6.881-0.915,10.539
						c0.074,0.444,0.761,0.625,1.045,0.276c2.812-3.456,4.568-7.626,7.546-10.969c3.631-4.075,8.953,2.933,13.345,2.485
						c0.429-0.044,0.834-0.512,0.54-0.94c-1.975-2.874-5.366-5.723-4.765-9.644c0.432-2.818,3.44-5.003,4.16-7.875
						c0.115-0.461-0.301-0.896-0.769-0.769c-3.969,1.072-9.361,4.563-13.187,1.396c-2.214-1.833-2.935-4.997-5.205-6.902
						c-0.326-0.273-0.952-0.227-1.045,0.276c-0.563,3.049-0.399,6.078-0.355,9.166C284.03,255.268,285.28,255.269,285.269,254.462
						L285.269,254.462z"/>
				</g>
			</g>
			<g>
				<g>
					<path fill="#FFFFFF" d="M201.246,94.296c-0.412-2.119-0.921-4.215-1.333-6.333c-0.306,0.235-0.612,0.47-0.918,0.706
						c1.956,1.362,4.952,5.541,7.814,5.063c3.287-0.548,5.837-3.447,8.276-5.494c-0.295-0.294-0.59-0.589-0.885-0.884
						c-1.932,2.357-4.38,5.547-3.411,8.849c1.309,4.457,5.252,7.65,7.98,11.242c0.235-0.306,0.471-0.612,0.706-0.918
						c-4.222-0.73-7.753-3.392-11.667-5c-0.473-0.194-0.86,0.355-0.769,0.769c1.242,5.583,3.82,10.731,5,16.333
						c0.348-0.203,0.696-0.405,1.045-0.608c-3.538-4.495-5.441-10.017-10-13.667c-4.042-3.236-9.536-2.136-14.276-2.827
						c0.05,0.381,0.1,0.761,0.149,1.142c3.741-2.771,8.03-4.598,12-7c0.688-0.417,0.061-1.498-0.631-1.079
						c-3.97,2.402-8.259,4.229-12,7c-0.373,0.276-0.452,1.055,0.149,1.142c5.838,0.851,11.179-0.198,15.831,4.375
						c3.34,3.283,5.002,8.125,7.893,11.798c0.42,0.534,1.161-0.058,1.045-0.608c-1.067-5.068-3.242-9.763-4.644-14.733
						c0.02,0.071,4.75,2.075,5.226,2.322c1.696,0.882,3.43,1.52,5.316,1.846c0.467,0.081,1.077-0.429,0.706-0.918
						c-1.448-1.906-3.009-3.705-4.579-5.512c-3.953-4.551-4.099-8.291-0.186-13.064c0.511-0.623-0.263-1.406-0.885-0.884
						c-2.175,1.825-4.22,3.935-6.89,5.034c-2.485,1.023-5.77-3.464-7.686-4.798c-0.49-0.342-1.013,0.218-0.918,0.706
						c0.412,2.119,0.921,4.215,1.333,6.333C200.194,95.419,201.399,95.083,201.246,94.296L201.246,94.296z"/>
				</g>
			</g>
			<g>
				<g>
					<path fill="#FFFFFF" d="M317.769,180.795c-0.087-2.118,0.647-4.723,3.277-4.357c2.125,0.296,3.46,2.311,3.546,4.33
						c0.098,2.311-1.494,5.559-4.221,4.88c-2.681-0.668-3.378-4.034-3.103-6.354c0.095-0.799-1.156-0.791-1.25,0
						c-0.369,3.111,0.93,6.789,4.271,7.621c3.427,0.854,5.349-3.011,5.547-5.814c0.198-2.81-1.9-5.513-4.698-5.902
						c-3.366-0.469-4.736,2.756-4.62,5.595C316.552,181.598,317.802,181.602,317.769,180.795L317.769,180.795z"/>
				</g>
			</g>
			<g>
				<g>
					<path fill="#FFFFFF" d="M318.701,175.353c-7.013,7.947-10.363,18.396-13.66,28.276c-0.256,0.767,0.951,1.093,1.205,0.332
						c3.229-9.675,6.472-19.941,13.34-27.724C320.116,175.635,319.236,174.748,318.701,175.353L318.701,175.353z"/>
				</g>
			</g>
			<g>
				<g>
					<path fill="#FFFFFF" d="M320.104,181.979c-2.509,5.714-4.122,11.731-6.063,17.649c-0.252,0.768,0.955,1.095,1.205,0.332
						c1.905-5.812,3.472-11.738,5.938-17.351C321.504,181.88,320.428,181.243,320.104,181.979L320.104,181.979z"/>
				</g>
			</g>
			<g>
				<g>
					<path fill="#FFFFFF" d="M324.519,179.795c0.827,16.242-4.655,32.419-10.915,47.185c-0.311,0.733,0.766,1.371,1.08,0.631
						c6.347-14.973,11.924-31.334,11.085-47.815C325.728,178.993,324.478,178.989,324.519,179.795L324.519,179.795z"/>
				</g>
			</g>
			<g>
				<g>
					<path fill="#FFFFFF" d="M113.516,320.11c1-2,2-4,3-6c-0.381-0.05-0.761-0.1-1.142-0.149c0.931,6.768,3.05,8.309,8.954,11.374
						c0.05-0.381,0.1-0.762,0.149-1.143c-2.453,0.907-6.712,0.108-8.835,1.808c-2.108,1.688-1.013,5.407-0.618,7.642
						c0.203,1.146,0.452,2.285,0.676,3.428c0.709,3.609-2.303-3.425-2.182-3.135c-0.781-1.862-1.563-3.422-3.049-4.784
						c-2.849-2.61-7.971-1.431-11.325-0.958c0.16,0.381,0.321,0.762,0.481,1.143c2.383-1.605,7.421-3.295,7.953-6.707
						c0.295-1.893,0.086-3.661-0.194-5.545c-0.619-4.171,4,2.163,4.816,3.154c0.513,0.622,1.393-0.268,0.884-0.885
						c-1.99-2.413-3.766-4.778-6.459-6.431c-0.387-0.237-0.971,0.065-0.94,0.54c0.144,2.218,0.6,4.392,0.826,6.604
						c0.477,4.677-4.423,6.107-7.516,8.189c-0.619,0.417-0.206,1.239,0.481,1.143c1.943-0.273,3.79-0.494,5.741-0.545
						c4.343-0.111,6.185,3.243,7.615,6.65c0.822,1.959,1.833,3.237,3.496,4.499c0.375,0.284,0.968-0.1,0.94-0.54
						c-0.199-3.184-1.186-6.271-1.512-9.447c-0.503-4.905,5.967-3.476,9.053-4.617c0.47-0.174,0.669-0.872,0.149-1.143
						c-2.021-1.049-4.203-1.978-5.983-3.423c-1.976-1.604-2.08-4.9-2.397-7.203c-0.074-0.539-0.916-0.603-1.142-0.149c-1,2-2,4-3,6
						C112.078,320.198,113.156,320.831,113.516,320.11L113.516,320.11z"/>
				</g>
			</g>
			<g>
				<g>
					<path fill="#FFFFFF" d="M49.183,119.61c1.07-1.485,2.24-2.823,3-4.5c-0.388-0.105-0.776-0.21-1.165-0.315
						c-0.475,4,0.287,7.727,3.81,10.04c0.105-0.388,0.21-0.776,0.315-1.165c-4.817-0.247-6.588,3.476-8.103,7.459
						c0.402,0.111,0.803,0.221,1.205,0.332c1.271-6.071-2.783-7.718-8.103-8.291c0.055,0.409,0.111,0.818,0.166,1.228
						c4.863-0.747,6.727-4.231,4.937-8.769c-0.348,0.203-0.696,0.405-1.044,0.608c1.264,1.056,2.726,1.741,4.126,2.598
						c0.689,0.422,1.317-0.66,0.631-1.079c-1.297-0.793-2.699-1.421-3.874-2.402c-0.425-0.355-1.298-0.034-1.044,0.608
						c1.523,3.862,0.082,6.595-4.063,7.231c-0.752,0.115-0.475,1.158,0.166,1.228c4.282,0.461,7.983,1.524,6.897,6.709
						c-0.167,0.798,0.921,1.079,1.205,0.332c1.288-3.387,2.66-6.758,6.897-6.541c0.656,0.034,0.805-0.843,0.315-1.165
						c-3.171-2.083-3.604-5.476-3.19-8.96c0.072-0.609-0.915-0.868-1.165-0.315c-0.755,1.667-1.938,3.024-3,4.5
						C47.632,119.635,48.717,120.258,49.183,119.61L49.183,119.61z"/>
				</g>
			</g>
		</g>
	</g>
</g>
</svg>
