<?xml version="1.0" encoding="utf-8"?>
<!-- Generator: Adobe Illustrator 16.0.0, SVG Export Plug-In . SVG Version: 6.00 Build 0)  -->
<!DOCTYPE svg PUBLIC "-//W3C//DTD SVG 1.1//EN" "http://www.w3.org/Graphics/SVG/1.1/DTD/svg11.dtd">
<svg version="1.1" id="Layer_1" xmlns="http://www.w3.org/2000/svg" xmlns:xlink="http://www.w3.org/1999/xlink" x="0px" y="0px"
	 width="362px" height="362px" viewBox="0 0 362 362" enable-background="new 0 0 362 362" xml:space="preserve">
<rect fill="#1A1818" width="362" height="362"/>
<g>
	<g>
		<g>
			<g>
				<path fill="#FFEF69" d="M295.32,275.972c-1.798,6.774-4.834,13.116-6.868,19.814c-0.388,1.272,1.191,1.989,2.09,1.216
					c5.017-4.325,10.225-8.627,14.34-13.854c0.621-0.789,0.316-2.178-0.885-2.135c-6.635,0.239-13.305,0.202-19.895,1.092
					c-0.957,0.129-1.164,1.498-0.553,2.088c5.619,5.412,13.631,6.533,20.195,10.36c1.186,0.69,2.17-0.629,1.711-1.71
					c-2.463-5.796-5.391-11.376-7.853-17.172c-0.628-1.479-2.781-0.204-2.158,1.262c2.462,5.797,5.39,11.377,7.853,17.172
					c0.57-0.57,1.14-1.14,1.709-1.709c-6.346-3.701-14.278-4.761-19.688-9.971c-0.185,0.696-0.366,1.393-0.552,2.089
					c6.359-0.856,12.829-0.77,19.23-1.001c-0.295-0.711-0.59-1.423-0.885-2.134c-4.115,5.228-9.322,9.528-14.34,13.854
					c0.696,0.404,1.393,0.811,2.089,1.215c2.035-6.696,5.071-13.039,6.868-19.813C298.145,275.076,295.733,274.414,295.32,275.972
					L295.32,275.972z"/>
			</g>
		</g>
		<g>
			<g>
				<path fill="#FFEF69" d="M73.904,219.637c6.901,0.824,12.946,4.441,19.667,5.955c1.258,0.283,2.037-1.143,1.216-2.089
					c-4.128-4.763-9.219-8.599-14-12.667c-0.802-0.684-2.134-0.271-2.134,0.884c0,5.111,0,10.222,0,15.333
					c0,1.188,1.32,1.521,2.134,0.885c5.484-4.305,9.404-10.05,13.529-15.586c0.615-0.826-0.238-1.822-1.079-1.882
					c-7.062-0.504-14.05,2.582-19.965,6.171c-1.376,0.836-0.12,2.997,1.262,2.158c5.563-3.375,12.056-6.304,18.703-5.829
					c-0.36-0.627-0.72-1.254-1.079-1.881c-4.005,5.376-7.816,10.903-13.139,15.08c0.711,0.295,1.422,0.589,2.134,0.884
					c0-5.111,0-10.222,0-15.333c-0.711,0.296-1.422,0.589-2.134,0.884c4.781,4.069,9.872,7.905,14,12.668
					c0.405-0.697,0.811-1.394,1.216-2.09c-6.959-1.566-13.18-5.189-20.333-6.045C72.305,216.945,72.324,219.447,73.904,219.637
					L73.904,219.637z"/>
			</g>
		</g>
		<g>
			<g>
				<path fill="#FFEF69" d="M234.755,248.171c-3.604-0.713-7.224-1.353-10.668-2.667c-0.522-0.2-0.978,0.479-0.705,0.918
					c2.019,3.259,4.647,6.074,6.666,9.333c0.268,0.431,1.033,0.407,1.144-0.149c0.705-3.572,1.31-7.182,1.354-10.832
					c0.008-0.543-0.688-0.83-1.066-0.441c-3.004,3.074-5.348,6.638-8,10c-0.332,0.423-0.043,1.314,0.607,1.045
					c3.404-1.408,6.599-3.26,10-4.667c0.734-0.304,0.414-1.515-0.332-1.205c-3.402,1.407-6.598,3.259-10,4.667
					c0.203,0.348,0.406,0.695,0.608,1.045c2.649-3.359,4.998-6.93,8-10c-0.356-0.146-0.712-0.295-1.067-0.441
					c-0.045,3.541-0.627,7.033-1.311,10.5c0.381-0.051,0.762-0.101,1.143-0.149c-2.019-3.259-4.648-6.074-6.666-9.333
					c-0.235,0.307-0.471,0.611-0.707,0.918c3.443,1.314,7.064,1.954,10.668,2.667C235.21,249.531,235.544,248.327,234.755,248.171
					L234.755,248.171z"/>
			</g>
		</g>
		<g>
			<g>
				<g>
					<path fill="#FFEF69" d="M322.927,217.889c2.417-0.369,4.783-1.002,7.2-1.371c0.795-0.121,0.456-1.324-0.332-1.205
						c-2.417,0.368-4.783,1.002-7.2,1.371C321.8,216.805,322.139,218.009,322.927,217.889L322.927,217.889z"/>
				</g>
			</g>
			<g>
				<g>
					<path fill="#FFEF69" d="M326.615,214.035c-0.686,1.713-1.4,3.398-2.338,4.992c-0.409,0.697,0.672,1.326,1.08,0.631
						c0.99-1.687,1.737-3.479,2.463-5.291C328.12,213.617,326.911,213.296,326.615,214.035L326.615,214.035z"/>
				</g>
			</g>
			<g>
				<g>
					<path fill="#FFEF69" d="M323.623,215.832c1.756,0.39,3.245,1.338,4.523,2.583c0.578,0.562,1.463-0.321,0.885-0.886
						c-1.424-1.385-3.12-2.469-5.076-2.902C323.17,214.452,322.836,215.656,323.623,215.832L323.623,215.832z"/>
				</g>
			</g>
		</g>
		<g>
			<g>
				<g>
					<path fill="#FFEF69" d="M273.354,175.567c3.52-0.535,7.055-1.525,10.634-1.058c0.798,0.104,0.787-1.147,0-1.25
						c-3.686-0.481-7.345,0.551-10.966,1.103C272.228,174.483,272.566,175.688,273.354,175.567L273.354,175.567z"/>
				</g>
			</g>
			<g>
				<g>
					<path fill="#FFEF69" d="M276.366,169.191c1.198,3.838,3.856,6.67,6.641,9.457c0.57,0.571,1.453-0.313,0.885-0.884
						c-2.623-2.625-5.188-5.282-6.32-8.905C277.331,168.092,276.124,168.419,276.366,169.191L276.366,169.191z"/>
				</g>
			</g>
			<g>
				<g>
					<path fill="#FFEF69" d="M281.386,169.664c-2.153,2.762-3.786,5.879-5.939,8.64c-0.488,0.627,0.389,1.519,0.885,0.884
						c2.153-2.762,3.787-5.879,5.939-8.64C282.76,169.919,281.882,169.027,281.386,169.664L281.386,169.664z"/>
				</g>
			</g>
		</g>
		<g>
			<g>
				<g>
					<path fill="#FFEF69" d="M214.077,171.53c0.438,2.424,1.188,4.776,1.627,7.2c0.145,0.792,1.349,0.456,1.205-0.332
						c-0.438-2.424-1.188-4.776-1.627-7.2C215.138,170.406,213.934,170.742,214.077,171.53L214.077,171.53z"/>
				</g>
			</g>
			<g>
				<g>
					<path fill="#FFEF69" d="M218.509,175.219c-2.027-0.683-4.037-1.387-5.959-2.336c-0.719-0.356-1.354,0.722-0.631,1.079
						c2.019,0.997,4.127,1.745,6.258,2.462C218.942,176.683,219.269,175.476,218.509,175.219L218.509,175.219z"/>
				</g>
			</g>
			<g>
				<g>
					<path fill="#FFEF69" d="M216.52,172.229c-0.481,1.836-1.685,3.302-3.099,4.524c-0.609,0.528,0.279,1.409,0.886,0.884
						c1.569-1.358,2.884-3.041,3.418-5.076C217.93,171.779,216.724,171.448,216.52,172.229L216.52,172.229z"/>
				</g>
			</g>
		</g>
		<g>
			<g>
				<g>
					<path fill="#FFEF69" d="M317.962,133.371c-1.898,2.756-3.518,5.69-5.416,8.445c-0.458,0.666,0.626,1.29,1.08,0.631
						c1.897-2.755,3.518-5.689,5.416-8.445C319.499,133.336,318.417,132.711,317.962,133.371L317.962,133.371z"/>
				</g>
			</g>
			<g>
				<g>
					<path fill="#FFEF69" d="M317.664,140.376c-0.893-2.088-1.725-4.18-2.269-6.39c-0.192-0.783-1.397-0.451-1.205,0.332
						c0.569,2.314,1.459,4.502,2.395,6.688C316.9,141.747,317.977,141.108,317.664,140.376L317.664,140.376z"/>
				</g>
			</g>
			<g>
				<g>
					<path fill="#FFEF69" d="M319.055,135.833c-1.978,1.49-4.249,2.314-6.688,2.661c-0.796,0.113-0.456,1.317,0.332,1.205
						c2.533-0.359,4.936-1.24,6.986-2.787C320.32,136.434,319.699,135.347,319.055,135.833L319.055,135.833z"/>
				</g>
			</g>
		</g>
		<g>
			<g>
				<path fill="#FFEF69" d="M251.093,133.477c-0.34,4.906-0.592,9.825-1.557,14.658c-0.119,0.594,0.577,1.071,1.045,0.608
					c3.101-3.083,5.531-6.747,8.633-9.831c0.313-0.312,0.195-0.954-0.276-1.044c-3.612-0.693-7.25-1.249-10.938-1.064
					c-0.563,0.028-0.803,0.651-0.441,1.067c3.273,3.769,7.15,6.839,10.783,10.234c0.424,0.395,1.283,0.012,1.046-0.608
					c-1.736-4.522-3.933-8.848-5.668-13.369c-0.286-0.745-1.494-0.421-1.205,0.332c1.735,4.522,3.932,8.848,5.668,13.369
					c0.348-0.203,0.696-0.405,1.045-0.608c-3.636-3.396-7.513-6.465-10.784-10.234c-0.146,0.355-0.295,0.711-0.441,1.067
					c3.58-0.179,7.098,0.346,10.605,1.02c-0.092-0.348-0.184-0.696-0.275-1.044c-3.102,3.084-5.531,6.747-8.633,9.831
					c0.348,0.203,0.696,0.405,1.045,0.608c0.987-4.942,1.254-9.972,1.602-14.99C252.398,132.671,251.148,132.676,251.093,133.477
					L251.093,133.477z"/>
			</g>
		</g>
		<g>
			<g>
				<g>
					<path fill="#FFEF69" d="M65.495,296.156c-2.157-2.736-4.813-5.283-6.129-8.569c-0.296-0.737-1.505-0.417-1.205,0.332
						c1.405,3.507,4.147,6.199,6.451,9.122C65.11,297.674,65.988,296.781,65.495,296.156L65.495,296.156z"/>
				</g>
			</g>
			<g>
				<g>
					<path fill="#FFEF69" d="M58.463,296.701c2.735-2.956,3.88-6.646,4.923-10.453c0.213-0.778-0.992-1.108-1.205-0.332
						c-0.982,3.582-2.022,7.111-4.602,9.9C57.033,296.406,57.915,297.294,58.463,296.701L58.463,296.701z"/>
				</g>
			</g>
			<g>
				<g>
					<path fill="#FFEF69" d="M56.385,292.105c3.467,0.494,6.981,0.385,10.447,0.877c0.788,0.112,1.127-1.092,0.332-1.205
						c-3.467-0.491-6.981-0.385-10.447-0.877C55.929,290.787,55.59,291.99,56.385,292.105L56.385,292.105z"/>
				</g>
			</g>
		</g>
		<g>
			<g>
				<g>
					<path fill="#FFEF69" d="M125.762,286.759c-0.74-2.351-1.778-4.589-2.519-6.938c-0.241-0.767-1.448-0.438-1.205,0.332
						c0.74,2.351,1.779,4.59,2.519,6.938C124.798,287.857,126.005,287.529,125.762,286.759L125.762,286.759z"/>
				</g>
			</g>
			<g>
				<g>
					<path fill="#FFEF69" d="M120.798,283.566c2.15,0.435,4.284,0.896,6.361,1.613c0.764,0.264,1.089-0.943,0.332-1.205
						c-2.077-0.717-4.211-1.181-6.361-1.613C120.344,282.201,120.008,283.406,120.798,283.566L120.798,283.566z"/>
				</g>
			</g>
			<g>
				<g>
					<path fill="#FFEF69" d="M123.231,286.211c0.24-1.807,1.253-3.398,2.447-4.729c0.537-0.6-0.345-1.485-0.884-0.886
						c-1.442,1.608-2.525,3.449-2.813,5.613C121.875,287.008,123.126,286.998,123.231,286.211L123.231,286.211z"/>
				</g>
			</g>
		</g>
		<g>
			<g>
				<path fill="#FFEF69" d="M93.792,329.162c-0.282-4.967-0.645-9.934-0.294-14.906c0.036-0.514-0.732-0.871-1.067-0.441
					c-2.689,3.449-4.642,7.39-7.331,10.836c-0.335,0.432-0.14,1.03,0.442,1.067c3.677,0.235,7.344,0.308,10.984-0.34
					c0.458-0.081,0.608-0.747,0.276-1.045c-3.759-3.364-8.033-5.954-12.109-8.897c-0.54-0.391-1.129,0.346-0.855,0.854
					c2.29,4.269,5.01,8.284,7.301,12.553c0.381,0.711,1.46,0.079,1.079-0.631c-2.291-4.269-5.011-8.284-7.301-12.554
					c-0.285,0.285-0.57,0.57-0.855,0.855c3.988,2.881,8.177,5.409,11.856,8.703c0.092-0.35,0.184-0.697,0.276-1.045
					c-3.526,0.626-7.094,0.521-10.652,0.295c0.147,0.355,0.294,0.711,0.442,1.066c2.69-3.448,4.643-7.389,7.331-10.836
					c-0.355-0.147-0.711-0.295-1.067-0.442c-0.351,4.974,0.012,9.938,0.294,14.906C92.587,329.964,93.837,329.968,93.792,329.162
					L93.792,329.162z"/>
			</g>
		</g>
		<g>
			<g>
				<g>
					<path fill="#FFEF69" d="M80.458,109.644c-1.559-1.908-3.371-3.587-4.93-5.495c-0.51-0.625-1.389,0.265-0.884,0.884
						c1.559,1.908,3.371,3.587,4.93,5.495C80.084,111.151,80.963,110.262,80.458,109.644L80.458,109.644z"/>
				</g>
			</g>
			<g>
				<g>
					<path fill="#FFEF69" d="M74.81,108.582c2.102-0.391,4.199-0.75,6.337-0.858c0.802-0.041,0.806-1.291,0-1.25
						c-2.25,0.115-4.458,0.492-6.669,0.903C73.686,107.523,74.022,108.729,74.81,108.582L74.81,108.582z"/>
				</g>
			</g>
			<g>
				<g>
					<path fill="#FFEF69" d="M77.983,110.211c-0.462-1.844-0.125-3.687,0.507-5.447c0.273-0.76-0.935-1.085-1.205-0.332
						c-0.708,1.971-1.022,4.056-0.507,6.111C76.974,111.325,78.179,110.994,77.983,110.211L77.983,110.211z"/>
				</g>
			</g>
		</g>
		<g>
			<g>
				<g>
					<path fill="#FFEF69" d="M34.916,193.57c0.311-3.332,0.306-6.683,0.616-10.015c0.075-0.803-1.176-0.796-1.25,0
						c-0.311,3.332-0.306,6.683-0.616,10.015C33.591,194.373,34.841,194.365,34.916,193.57L34.916,193.57z"/>
				</g>
			</g>
			<g>
				<g>
					<path fill="#FFEF69" d="M31.639,187.223c1.838,1.42,3.638,2.868,5.222,4.576c0.549,0.592,1.431-0.294,0.884-0.885
						c-1.583-1.707-3.383-3.155-5.222-4.576C31.893,185.854,31.001,186.73,31.639,187.223L31.639,187.223z"/>
				</g>
			</g>
			<g>
				<g>
					<path fill="#FFEF69" d="M32.763,191.963c0.962-2.201,2.509-4.042,4.42-5.484c0.635-0.479,0.013-1.566-0.631-1.08
						c-2.082,1.571-3.817,3.527-4.869,5.935C31.364,192.064,32.441,192.699,32.763,191.963L32.763,191.963z"/>
				</g>
			</g>
		</g>
		<g>
			<g>
				<g>
					<path fill="#FFEF69" d="M215.071,326.777c-2.115,1.265-4.045,2.807-6.158,4.069c-0.69,0.413-0.063,1.494,0.631,1.08
						c2.113-1.265,4.043-2.807,6.158-4.069C216.394,327.443,215.765,326.363,215.071,326.777L215.071,326.777z"/>
				</g>
			</g>
			<g>
				<g>
					<path fill="#FFEF69" d="M213.139,332.322c-0.08-2.192-0.128-4.377,0.084-6.563c0.077-0.803-1.173-0.795-1.25,0
						c-0.212,2.187-0.164,4.37-0.084,6.563C211.917,333.126,213.167,333.129,213.139,332.322L213.139,332.322z"/>
				</g>
			</g>
			<g>
				<g>
					<path fill="#FFEF69" d="M215.288,329.342c-1.895,0.191-3.67-0.373-5.326-1.264c-0.709-0.381-1.34,0.697-0.631,1.08
						c1.834,0.984,3.855,1.646,5.957,1.434C216.083,330.512,216.089,329.261,215.288,329.342L215.288,329.342z"/>
				</g>
			</g>
		</g>
		<g>
			<g>
				<g>
					<path fill="#FFEF69" d="M173.553,33.347c2.417-0.369,4.783-1.002,7.2-1.371c0.795-0.121,0.456-1.326-0.332-1.205
						c-2.417,0.369-4.783,1.002-7.2,1.371C172.426,32.263,172.765,33.467,173.553,33.347L173.553,33.347z"/>
				</g>
			</g>
			<g>
				<g>
					<path fill="#FFEF69" d="M177.242,29.493c-0.686,1.713-1.401,3.4-2.336,4.994c-0.409,0.697,0.672,1.326,1.079,0.631
						c0.99-1.688,1.737-3.48,2.462-5.293C178.747,29.075,177.537,28.753,177.242,29.493L177.242,29.493z"/>
				</g>
			</g>
			<g>
				<g>
					<path fill="#FFEF69" d="M174.25,31.29c1.755,0.39,3.245,1.339,4.524,2.583c0.578,0.562,1.463-0.321,0.884-0.884
						c-1.424-1.384-3.12-2.47-5.076-2.904C173.797,29.91,173.463,31.114,174.25,31.29L174.25,31.29z"/>
				</g>
			</g>
		</g>
		<g>
			<g>
				<g>
					<path fill="#FFEF69" d="M146.744,149.982c3.52-0.535,7.054-1.525,10.634-1.058c0.798,0.104,0.788-1.147,0-1.25
						c-3.685-0.481-7.345,0.551-10.966,1.103C145.617,148.898,145.956,150.104,146.744,149.982L146.744,149.982z"/>
				</g>
			</g>
			<g>
				<g>
					<path fill="#FFEF69" d="M149.754,143.607c1.199,3.838,3.856,6.669,6.641,9.456c0.57,0.571,1.454-0.313,0.884-0.884
						c-2.622-2.624-5.188-5.281-6.32-8.904C150.72,142.508,149.513,142.835,149.754,143.607L149.754,143.607z"/>
				</g>
			</g>
			<g>
				<g>
					<path fill="#FFEF69" d="M154.775,144.08c-2.154,2.762-3.787,5.878-5.939,8.64c-0.489,0.627,0.389,1.519,0.884,0.884
						c2.153-2.762,3.787-5.879,5.939-8.64C156.149,144.335,155.271,143.443,154.775,144.08L154.775,144.08z"/>
				</g>
			</g>
		</g>
		<g>
			<g>
				<g>
					<path fill="#FFEF69" d="M289.442,53.316c-4.468-0.047-9.027,0.37-13.412-0.68c-0.783-0.188-1.115,1.018-0.332,1.205
						c4.504,1.078,9.156,0.676,13.744,0.725C290.249,54.574,290.249,53.324,289.442,53.316L289.442,53.316z"/>
				</g>
			</g>
			<g>
				<g>
					<path fill="#FFEF69" d="M284.565,59.043c-1.048-4.234-4.081-7.386-7.021-10.441c-0.561-0.582-1.442,0.303-0.885,0.884
						c2.791,2.9,5.704,5.867,6.7,9.889C283.554,60.157,284.759,59.825,284.565,59.043L284.565,59.043z"/>
				</g>
			</g>
			<g>
				<g>
					<path fill="#FFEF69" d="M278.499,57.782c3.002-2.348,5.519-5.24,8.521-7.59c0.634-0.497-0.258-1.375-0.886-0.884
						c-3,2.349-5.516,5.241-8.52,7.59C276.981,57.395,277.872,58.273,278.499,57.782L278.499,57.782z"/>
				</g>
			</g>
		</g>
	</g>
</g>
</svg>
