<?xml version="1.0" encoding="utf-8"?>
<!-- Generator: Adobe Illustrator 16.0.0, SVG Export Plug-In . SVG Version: 6.00 Build 0)  -->
<!DOCTYPE svg PUBLIC "-//W3C//DTD SVG 1.1//EN" "http://www.w3.org/Graphics/SVG/1.1/DTD/svg11.dtd">
<svg version="1.1" id="Layer_1" xmlns="http://www.w3.org/2000/svg" xmlns:xlink="http://www.w3.org/1999/xlink" x="0px" y="0px"
	 width="362px" height="362px" viewBox="0 0 362 362" enable-background="new 0 0 362 362" xml:space="preserve">
<rect y="-0.138" fill="#1A1818" width="362" height="362"/>
<g>
	<g>
		<g>
			<g>
				<path fill="#FFEF69" d="M295.3,275.843c-1.798,6.774-4.834,13.116-6.868,19.814c-0.388,1.273,1.191,1.989,2.089,1.216
					c5.017-4.325,10.225-8.627,14.34-13.854c0.621-0.788,0.317-2.177-0.884-2.134c-6.635,0.239-13.305,0.202-19.895,1.091
					c-0.957,0.129-1.164,1.499-0.552,2.089c5.618,5.411,13.63,6.533,20.195,10.36c1.185,0.69,2.169-0.629,1.71-1.71
					c-2.462-5.796-5.39-11.376-7.852-17.172c-0.628-1.479-2.781-0.204-2.158,1.262c2.462,5.796,5.39,11.376,7.852,17.172
					c0.57-0.57,1.14-1.14,1.71-1.71c-6.347-3.7-14.279-4.76-19.689-9.97c-0.184,0.696-0.367,1.393-0.552,2.089
					c6.359-0.857,12.829-0.77,19.23-1.001c-0.295-0.711-0.589-1.423-0.884-2.134c-4.115,5.227-9.323,9.528-14.34,13.854
					c0.696,0.405,1.393,0.811,2.089,1.216c2.035-6.697,5.071-13.04,6.868-19.814C298.124,274.947,295.713,274.285,295.3,275.843
					L295.3,275.843z"/>
			</g>
		</g>
		<g>
			<g>
				<path fill="#FFEF69" d="M73.883,219.508c6.901,0.824,12.946,4.441,19.667,5.955c1.258,0.283,2.037-1.143,1.216-2.089
					c-4.128-4.762-9.219-8.598-14-12.667c-0.802-0.683-2.134-0.272-2.134,0.884c0,5.111,0,10.222,0,15.333
					c0,1.188,1.32,1.522,2.134,0.884c5.484-4.304,9.404-10.049,13.529-15.586c0.615-0.825-0.238-1.821-1.079-1.881
					c-7.062-0.504-14.05,2.582-19.965,6.171c-1.376,0.835-0.12,2.997,1.262,2.158c5.563-3.375,12.056-6.304,18.703-5.829
					c-0.36-0.627-0.72-1.254-1.079-1.881c-4.005,5.376-7.816,10.903-13.139,15.08c0.711,0.295,1.422,0.589,2.134,0.884
					c0-5.111,0-10.222,0-15.333c-0.711,0.295-1.422,0.589-2.134,0.884c4.781,4.069,9.872,7.905,14,12.667
					c0.405-0.696,0.811-1.393,1.216-2.089c-6.959-1.567-13.18-5.19-20.333-6.045C72.284,216.816,72.303,219.319,73.883,219.508
					L73.883,219.508z"/>
			</g>
		</g>
		<g>
			<g>
				<path fill="#FFEF69" d="M234.734,248.042c-3.603-0.713-7.223-1.352-10.667-2.667c-0.523-0.2-0.978,0.479-0.706,0.918
					c2.019,3.259,4.648,6.074,6.667,9.333c0.267,0.43,1.033,0.407,1.143-0.149c0.705-3.573,1.309-7.182,1.355-10.832
					c0.007-0.543-0.688-0.83-1.067-0.442c-3.004,3.075-5.347,6.638-8,10c-0.332,0.423-0.043,1.314,0.608,1.045
					c3.403-1.408,6.598-3.26,10-4.667c0.734-0.304,0.413-1.514-0.332-1.205c-3.403,1.407-6.598,3.259-10,4.667
					c0.202,0.348,0.405,0.696,0.608,1.045c2.649-3.36,4.998-6.93,8-10c-0.356-0.147-0.712-0.295-1.067-0.442
					c-0.046,3.541-0.627,7.033-1.311,10.5c0.381-0.05,0.762-0.1,1.143-0.149c-2.019-3.259-4.649-6.074-6.667-9.333
					c-0.235,0.306-0.471,0.612-0.706,0.918c3.443,1.315,7.064,1.954,10.667,2.667C235.189,249.403,235.524,248.198,234.734,248.042
					L234.734,248.042z"/>
			</g>
		</g>
		<g>
			<g>
				<g>
					<path fill="#FFEF69" d="M322.906,217.76c2.417-0.369,4.783-1.002,7.2-1.371c0.795-0.121,0.456-1.325-0.332-1.205
						c-2.417,0.368-4.783,1.002-7.2,1.371C321.779,216.676,322.118,217.88,322.906,217.76L322.906,217.76z"/>
				</g>
			</g>
			<g>
				<g>
					<path fill="#FFEF69" d="M326.595,213.906c-0.686,1.713-1.401,3.399-2.338,4.993c-0.409,0.696,0.672,1.325,1.08,0.631
						c0.99-1.687,1.737-3.479,2.463-5.292C328.1,213.489,326.891,213.167,326.595,213.906L326.595,213.906z"/>
				</g>
			</g>
			<g>
				<g>
					<path fill="#FFEF69" d="M323.603,215.703c1.755,0.39,3.245,1.338,4.523,2.583c0.578,0.562,1.463-0.321,0.885-0.885
						c-1.424-1.385-3.12-2.47-5.076-2.903C323.149,214.323,322.815,215.528,323.603,215.703L323.603,215.703z"/>
				</g>
			</g>
		</g>
		<g>
			<g>
				<g>
					<path fill="#FFEF69" d="M273.334,175.439c3.52-0.535,7.054-1.525,10.634-1.058c0.798,0.104,0.787-1.147,0-1.25
						c-3.686-0.481-7.345,0.551-10.966,1.103C272.207,174.355,272.546,175.56,273.334,175.439L273.334,175.439z"/>
				</g>
			</g>
			<g>
				<g>
					<path fill="#FFEF69" d="M276.345,169.063c1.199,3.838,3.857,6.67,6.641,9.457c0.57,0.571,1.454-0.313,0.885-0.884
						c-2.623-2.625-5.188-5.282-6.32-8.905C277.311,167.964,276.104,168.291,276.345,169.063L276.345,169.063z"/>
				</g>
			</g>
			<g>
				<g>
					<path fill="#FFEF69" d="M281.365,169.535c-2.153,2.762-3.786,5.879-5.939,8.64c-0.489,0.627,0.389,1.519,0.885,0.884
						c2.153-2.762,3.786-5.879,5.939-8.64C282.739,169.791,281.861,168.899,281.365,169.535L281.365,169.535z"/>
				</g>
			</g>
		</g>
		<g>
			<g>
				<g>
					<path fill="#FFEF69" d="M214.056,171.402c0.438,2.424,1.188,4.776,1.628,7.2c0.144,0.792,1.348,0.456,1.205-0.332
						c-0.439-2.424-1.189-4.776-1.628-7.2C215.117,170.278,213.913,170.614,214.056,171.402L214.056,171.402z"/>
				</g>
			</g>
			<g>
				<g>
					<path fill="#FFEF69" d="M218.488,175.091c-2.027-0.683-4.037-1.387-5.958-2.336c-0.72-0.356-1.354,0.722-0.631,1.079
						c2.018,0.997,4.127,1.745,6.257,2.462C218.922,176.554,219.248,175.347,218.488,175.091L218.488,175.091z"/>
				</g>
			</g>
			<g>
				<g>
					<path fill="#FFEF69" d="M216.499,172.1c-0.482,1.836-1.685,3.302-3.098,4.524c-0.61,0.528,0.278,1.409,0.885,0.884
						c1.569-1.358,2.884-3.041,3.418-5.076C217.909,171.651,216.703,171.32,216.499,172.1L216.499,172.1z"/>
				</g>
			</g>
		</g>
		<g>
			<g>
				<g>
					<path fill="#FFEF69" d="M317.941,133.242c-1.898,2.756-3.517,5.69-5.416,8.445c-0.458,0.666,0.626,1.29,1.08,0.631
						c1.898-2.755,3.518-5.689,5.416-8.445C319.479,133.208,318.396,132.583,317.941,133.242L317.941,133.242z"/>
				</g>
			</g>
			<g>
				<g>
					<path fill="#FFEF69" d="M317.644,140.248c-0.893-2.088-1.725-4.18-2.269-6.39c-0.192-0.783-1.397-0.451-1.205,0.332
						c0.569,2.314,1.459,4.502,2.394,6.688C316.88,141.618,317.956,140.98,317.644,140.248L317.644,140.248z"/>
				</g>
			</g>
			<g>
				<g>
					<path fill="#FFEF69" d="M319.034,135.705c-1.977,1.49-4.249,2.314-6.688,2.661c-0.796,0.113-0.456,1.317,0.332,1.205
						c2.533-0.359,4.935-1.24,6.986-2.787C320.3,136.305,319.679,135.219,319.034,135.705L319.034,135.705z"/>
				</g>
			</g>
		</g>
		<g>
			<g>
				<path fill="#FFEF69" d="M251.072,133.348c-0.34,4.906-0.591,9.825-1.557,14.658c-0.119,0.594,0.578,1.071,1.045,0.608
					c3.101-3.083,5.532-6.747,8.633-9.831c0.313-0.312,0.195-0.954-0.276-1.044c-3.612-0.693-7.25-1.249-10.938-1.064
					c-0.563,0.028-0.803,0.651-0.442,1.067c3.273,3.769,7.15,6.839,10.784,10.234c0.423,0.395,1.283,0.012,1.045-0.608
					c-1.736-4.522-3.932-8.848-5.668-13.369c-0.286-0.745-1.494-0.421-1.205,0.332c1.736,4.522,3.932,8.848,5.668,13.369
					c0.348-0.203,0.696-0.405,1.045-0.608c-3.635-3.396-7.512-6.465-10.784-10.234c-0.147,0.355-0.295,0.711-0.442,1.067
					c3.58-0.179,7.098,0.346,10.606,1.02c-0.092-0.348-0.184-0.696-0.276-1.044c-3.101,3.084-5.531,6.747-8.633,9.831
					c0.349,0.203,0.697,0.405,1.045,0.608c0.988-4.942,1.254-9.972,1.602-14.99C252.378,132.543,251.128,132.548,251.072,133.348
					L251.072,133.348z"/>
			</g>
		</g>
		<g>
			<g>
				<g>
					<path fill="#FFEF69" d="M65.474,296.027c-2.157-2.736-4.813-5.283-6.129-8.569c-0.296-0.738-1.505-0.417-1.205,0.332
						c1.405,3.507,4.147,6.199,6.451,9.122C65.089,297.545,65.967,296.653,65.474,296.027L65.474,296.027z"/>
				</g>
			</g>
			<g>
				<g>
					<path fill="#FFEF69" d="M58.442,296.572c2.735-2.956,3.88-6.646,4.923-10.453c0.213-0.778-0.992-1.108-1.205-0.332
						c-0.982,3.582-2.022,7.112-4.602,9.9C57.012,296.278,57.894,297.165,58.442,296.572L58.442,296.572z"/>
				</g>
			</g>
			<g>
				<g>
					<path fill="#FFEF69" d="M56.364,291.976c3.467,0.494,6.981,0.386,10.447,0.878c0.788,0.112,1.127-1.092,0.332-1.205
						c-3.467-0.492-6.981-0.385-10.447-0.878C55.908,290.658,55.569,291.862,56.364,291.976L56.364,291.976z"/>
				</g>
			</g>
		</g>
		<g>
			<g>
				<g>
					<path fill="#FFEF69" d="M125.741,286.63c-0.74-2.35-1.778-4.589-2.519-6.938c-0.241-0.767-1.448-0.438-1.205,0.332
						c0.74,2.35,1.779,4.589,2.519,6.938C124.777,287.729,125.984,287.4,125.741,286.63L125.741,286.63z"/>
				</g>
			</g>
			<g>
				<g>
					<path fill="#FFEF69" d="M120.777,283.437c2.15,0.435,4.284,0.897,6.361,1.614c0.764,0.264,1.089-0.943,0.332-1.205
						c-2.077-0.717-4.211-1.181-6.361-1.614C120.323,282.072,119.987,283.277,120.777,283.437L120.777,283.437z"/>
				</g>
			</g>
			<g>
				<g>
					<path fill="#FFEF69" d="M123.21,286.082c0.24-1.806,1.253-3.398,2.447-4.729c0.537-0.599-0.345-1.485-0.884-0.885
						c-1.442,1.608-2.525,3.449-2.813,5.613C121.854,286.879,123.105,286.869,123.21,286.082L123.21,286.082z"/>
				</g>
			</g>
		</g>
		<g>
			<g>
				<path fill="#FFEF69" d="M93.771,329.033c-0.282-4.967-0.645-9.934-0.294-14.906c0.036-0.514-0.732-0.871-1.067-0.442
					c-2.689,3.45-4.642,7.39-7.331,10.837c-0.335,0.431-0.14,1.03,0.442,1.067c3.677,0.235,7.344,0.307,10.984-0.34
					c0.458-0.081,0.608-0.747,0.276-1.045c-3.759-3.364-8.033-5.954-12.109-8.898c-0.54-0.39-1.129,0.346-0.855,0.855
					c2.29,4.269,5.01,8.284,7.301,12.553c0.381,0.711,1.46,0.079,1.079-0.631c-2.291-4.269-5.011-8.284-7.301-12.553
					c-0.285,0.285-0.57,0.57-0.855,0.855c3.988,2.881,8.177,5.409,11.856,8.703c0.092-0.349,0.184-0.697,0.276-1.045
					c-3.526,0.626-7.094,0.522-10.652,0.295c0.147,0.355,0.294,0.711,0.442,1.067c2.69-3.449,4.643-7.389,7.331-10.837
					c-0.355-0.147-0.711-0.295-1.067-0.442c-0.351,4.973,0.012,9.939,0.294,14.906C92.566,329.835,93.816,329.839,93.771,329.033
					L93.771,329.033z"/>
			</g>
		</g>
		<g>
			<g>
				<g>
					<path fill="#FFEF69" d="M80.437,109.515c-1.559-1.908-3.371-3.587-4.93-5.495c-0.51-0.625-1.389,0.265-0.884,0.884
						c1.559,1.908,3.371,3.587,4.93,5.495C80.063,111.023,80.942,110.134,80.437,109.515L80.437,109.515z"/>
				</g>
			</g>
			<g>
				<g>
					<path fill="#FFEF69" d="M74.789,108.453c2.102-0.391,4.199-0.75,6.337-0.858c0.802-0.041,0.806-1.291,0-1.25
						c-2.25,0.115-4.458,0.492-6.669,0.903C73.665,107.395,74.001,108.6,74.789,108.453L74.789,108.453z"/>
				</g>
			</g>
			<g>
				<g>
					<path fill="#FFEF69" d="M77.962,110.083c-0.462-1.844-0.125-3.687,0.507-5.447c0.273-0.76-0.935-1.085-1.205-0.332
						c-0.708,1.971-1.022,4.056-0.507,6.111C76.953,111.197,78.158,110.865,77.962,110.083L77.962,110.083z"/>
				</g>
			</g>
		</g>
		<g>
			<g>
				<g>
					<path fill="#FFEF69" d="M34.895,193.441c0.311-3.332,0.306-6.682,0.616-10.014c0.075-0.803-1.176-0.796-1.25,0
						c-0.311,3.332-0.306,6.682-0.616,10.014C33.57,194.244,34.82,194.237,34.895,193.441L34.895,193.441z"/>
				</g>
			</g>
			<g>
				<g>
					<path fill="#FFEF69" d="M31.618,187.094c1.838,1.42,3.638,2.868,5.222,4.576c0.549,0.592,1.431-0.294,0.884-0.885
						c-1.583-1.707-3.383-3.155-5.222-4.576C31.872,185.724,30.98,186.601,31.618,187.094L31.618,187.094z"/>
				</g>
			</g>
			<g>
				<g>
					<path fill="#FFEF69" d="M32.742,191.834c0.962-2.201,2.509-4.042,4.42-5.485c0.635-0.479,0.013-1.566-0.631-1.08
						c-2.082,1.572-3.817,3.528-4.869,5.935C31.343,191.935,32.42,192.571,32.742,191.834L32.742,191.834z"/>
				</g>
			</g>
		</g>
		<g>
			<g>
				<g>
					<path fill="#FFEF69" d="M215.051,326.648c-2.115,1.265-4.045,2.807-6.159,4.07c-0.69,0.413-0.063,1.494,0.631,1.08
						c2.114-1.265,4.044-2.807,6.159-4.07C216.373,327.315,215.744,326.234,215.051,326.648L215.051,326.648z"/>
				</g>
			</g>
			<g>
				<g>
					<path fill="#FFEF69" d="M213.118,332.193c-0.08-2.192-0.128-4.376,0.084-6.563c0.078-0.803-1.173-0.795-1.25,0
						c-0.212,2.187-0.164,4.37-0.084,6.563C211.897,332.997,213.147,333,213.118,332.193L213.118,332.193z"/>
				</g>
			</g>
			<g>
				<g>
					<path fill="#FFEF69" d="M215.268,329.213c-1.895,0.191-3.671-0.373-5.326-1.264c-0.71-0.381-1.341,0.698-0.631,1.08
						c1.833,0.985,3.855,1.646,5.957,1.434C216.062,330.383,216.069,329.132,215.268,329.213L215.268,329.213z"/>
				</g>
			</g>
		</g>
		<g>
			<g>
				<g>
					<path fill="#FFEF69" d="M173.532,33.219c2.417-0.369,4.783-1.002,7.2-1.371c0.795-0.121,0.456-1.326-0.332-1.205
						c-2.417,0.369-4.783,1.002-7.2,1.371C172.405,32.135,172.744,33.339,173.532,33.219L173.532,33.219z"/>
				</g>
			</g>
			<g>
				<g>
					<path fill="#FFEF69" d="M177.221,29.364c-0.686,1.713-1.401,3.4-2.336,4.994c-0.409,0.697,0.672,1.326,1.079,0.631
						c0.99-1.687,1.737-3.48,2.462-5.293C178.726,28.947,177.516,28.625,177.221,29.364L177.221,29.364z"/>
				</g>
			</g>
			<g>
				<g>
					<path fill="#FFEF69" d="M174.229,31.161c1.755,0.39,3.245,1.339,4.524,2.583c0.578,0.562,1.463-0.321,0.884-0.884
						c-1.424-1.384-3.12-2.47-5.076-2.904C173.776,29.781,173.442,30.986,174.229,31.161L174.229,31.161z"/>
				</g>
			</g>
		</g>
		<g>
			<g>
				<g>
					<path fill="#FFEF69" d="M146.723,149.854c3.52-0.535,7.054-1.525,10.634-1.058c0.798,0.104,0.788-1.147,0-1.25
						c-3.685-0.481-7.345,0.551-10.966,1.103C145.596,148.77,145.935,149.975,146.723,149.854L146.723,149.854z"/>
				</g>
			</g>
			<g>
				<g>
					<path fill="#FFEF69" d="M149.733,143.479c1.199,3.838,3.856,6.669,6.641,9.456c0.57,0.571,1.454-0.313,0.884-0.884
						c-2.622-2.624-5.188-5.281-6.32-8.904C150.699,142.38,149.492,142.707,149.733,143.479L149.733,143.479z"/>
				</g>
			</g>
			<g>
				<g>
					<path fill="#FFEF69" d="M154.754,143.951c-2.154,2.762-3.787,5.878-5.939,8.64c-0.489,0.627,0.389,1.519,0.884,0.884
						c2.153-2.762,3.787-5.879,5.939-8.64C156.128,144.207,155.25,143.315,154.754,143.951L154.754,143.951z"/>
				</g>
			</g>
		</g>
		<g>
			<g>
				<g>
					<path fill="#FFEF69" d="M289.422,53.188c-4.468-0.047-9.027,0.37-13.412-0.68c-0.783-0.188-1.116,1.018-0.332,1.205
						c4.503,1.078,9.156,0.676,13.744,0.725C290.229,54.446,290.228,53.196,289.422,53.188L289.422,53.188z"/>
				</g>
			</g>
			<g>
				<g>
					<path fill="#FFEF69" d="M284.545,58.915c-1.048-4.234-4.081-7.386-7.021-10.441c-0.561-0.582-1.443,0.303-0.885,0.884
						c2.791,2.9,5.704,5.867,6.7,9.889C283.533,60.029,284.738,59.697,284.545,58.915L284.545,58.915z"/>
				</g>
			</g>
			<g>
				<g>
					<path fill="#FFEF69" d="M278.479,57.654c3.002-2.348,5.518-5.24,8.52-7.59c0.634-0.497-0.258-1.375-0.885-0.884
						c-3.001,2.349-5.517,5.241-8.52,7.59C276.961,57.266,277.852,58.145,278.479,57.654L278.479,57.654z"/>
				</g>
			</g>
		</g>
	</g>
</g>
</svg>
