<?xml version="1.0" encoding="utf-8"?>
<!-- Generator: Adobe Illustrator 16.0.0, SVG Export Plug-In . SVG Version: 6.00 Build 0)  -->
<!DOCTYPE svg PUBLIC "-//W3C//DTD SVG 1.1//EN" "http://www.w3.org/Graphics/SVG/1.1/DTD/svg11.dtd">
<svg version="1.1" id="Layer_1" xmlns="http://www.w3.org/2000/svg" xmlns:xlink="http://www.w3.org/1999/xlink" x="0px" y="0px"
	 width="195.648px" height="79.197px" viewBox="0 0 195.648 79.197" enable-background="new 0 0 195.648 79.197"
	 xml:space="preserve">
<g>
	<g>
		<image overflow="visible" width="114" height="119" xlink:href="94156C9D.png"  transform="matrix(1 0 0 1 20.324 -36.9014)">
		</image>
	</g>
	<g>
		<g>
			<path fill="#00ACEC" d="M44.594,46.624c-7.969-0.742-14.454,6.514-13.286,14.371c0.507,3.407,2.727,6.129,6.088,7.027
				c5.243,1.4,11.021-1.838,15.229-4.563c1.732-1.121,0.123-3.902-1.621-2.773c-4.078,2.639-15.555,8.485-16.577-0.432
				c-0.688-6.01,4.239-10.971,10.167-10.418C46.656,50.028,46.638,46.815,44.594,46.624L44.594,46.624z"/>
		</g>
		<g>
			<path fill="#00ACEC" d="M47.712,56.86c1.044,3.483,2.289,6.883,3.611,10.268c0.766,1.963,3.372,1.186,3.097-0.853
				c-0.497-3.69-1.653-14.065,4.47-13.37c2.057,0.233,2.034-2.981,0-3.212c-9.009-1.022-8.327,11.788-7.566,17.435
				c1.033-0.284,2.064-0.568,3.097-0.853c-1.32-3.387-2.566-6.784-3.611-10.269C50.217,54.027,47.116,54.872,47.712,56.86
				L47.712,56.86z"/>
		</g>
		<g>
			<g>
				<path fill="#00ACEC" d="M59.237,54.665c-0.612,4.877,0.427,9.293,3.481,13.173c1.281,1.628,3.538-0.663,2.271-2.271
					c-2.521-3.204-3.036-6.956-2.54-10.901C62.707,52.613,59.492,52.638,59.237,54.665L59.237,54.665z"/>
			</g>
			<g>
				<path fill="#00ACEC" d="M60.844,47.845c2.072,0,2.072-3.212,0-3.212C58.772,44.633,58.772,47.845,60.844,47.845L60.844,47.845z"
					/>
			</g>
		</g>
		<g>
			<g>
				<path fill="#00ACEC" d="M63.451,42.628c0.73,8.424,2.999,16.447,5.475,24.5c0.605,1.975,3.707,1.133,3.097-0.853
					c-2.387-7.77-4.654-15.516-5.359-23.647C66.486,40.58,63.271,40.563,63.451,42.628L63.451,42.628z"/>
			</g>
			<g>
				<path fill="#00ACEC" d="M69.452,60.892c0.491-0.941,1.335-2.139,2.227-2.235c0.881-0.095,1.539,0.351,2.204,1.132
					c0.537,0.631,0.767,1.656,0.613,2.395c-0.26,1.242-1.497,1.963-2.645,2.369c-1.94,0.682-1.105,3.787,0.853,3.097
					c2.206-0.776,4.106-2.112,4.838-4.421c0.555-1.746,0.037-3.789-1.019-5.234c-1.103-1.513-2.756-2.548-4.662-2.559
					c-2.379-0.014-4.164,1.878-5.183,3.836C65.723,61.105,68.496,62.731,69.452,60.892L69.452,60.892z"/>
			</g>
		</g>
		<g>
			<g>
				<path fill="#00ACEC" d="M74.544,42.628c0.732,8.424,2.999,16.447,5.475,24.5c0.606,1.975,3.708,1.133,3.097-0.853
					c-2.386-7.77-4.653-15.516-5.359-23.647C77.579,40.58,74.365,40.563,74.544,42.628L74.544,42.628z"/>
			</g>
			<g>
				<path fill="#00ACEC" d="M80.546,60.892c0.491-0.941,1.335-2.139,2.229-2.235c0.88-0.095,1.539,0.351,2.203,1.132
					c0.537,0.631,0.767,1.656,0.614,2.395c-0.26,1.242-1.497,1.963-2.646,2.369c-1.939,0.682-1.105,3.787,0.854,3.097
					c2.206-0.776,4.105-2.112,4.839-4.421c0.555-1.746,0.036-3.789-1.019-5.234c-1.104-1.513-2.757-2.548-4.665-2.559
					c-2.377-0.014-4.162,1.878-5.182,3.836C76.817,61.105,79.589,62.731,80.546,60.892L80.546,60.892z"/>
			</g>
		</g>
		<g>
			<path fill="#00ACEC" d="M88.897,44.232c0.355,7.878-0.661,16.005,3.027,23.28c0.936,1.848,3.708,0.223,2.773-1.621
				c-3.379-6.668-2.262-14.444-2.589-21.659C92.016,42.17,88.802,42.161,88.897,44.232L88.897,44.232z"/>
		</g>
		<g>
			<path fill="#00ACEC" d="M97.349,64.237c3.129-0.668,9.912-3.398,6.979-7.826c-2.662-4.016-7.386-0.365-8.792,2.659
				c-1.822,3.915-1.309,8.593,3.678,9.159c4.067,0.461,8.604-1.064,12.161-2.95c1.831-0.97,0.209-3.743-1.621-2.773
				c-1.918,1.017-10.967,4.845-12.041,1.397c-0.504-1.622,1.25-6.338,3.442-5.979c0.521,0.086,0.683,0.422,0.451,0.871
				c-0.816,1.587-3.592,2.02-5.11,2.346C94.47,61.573,95.329,64.671,97.349,64.237L97.349,64.237z"/>
		</g>
		<g>
			<path fill="#00ACEC" d="M36.123,21.445c-2.916-7.211-8.134-13.283-16.571-11.405C10.468,12.065,8.301,23.454,9.221,31.104
				c0.292,2.425,1.361,4.026,3.552,5.072c7.141,3.409,13.314,5.076,14.303,14.359c0.912,8.571-8.057,15.85-16.079,14.154
				C5.807,63.593,0.403,56.784,5.86,52.807c1.876-1.366,7.987-3.095,8.25,1.164c0.128,2.058,3.34,2.071,3.212,0
				C16.827,45.984,5.782,47.06,1.936,52.05c-7.269,9.436,7.69,17.439,15.742,15.725c11.942-2.543,16.063-18.541,8.76-27.447
				c-1.758-2.143-3.647-3.643-6.239-4.713c-4.793-1.98-7.685-2.058-8.094-8.125c-0.351-5.205,1.848-10.402,6.139-13.381
				c6.671-4.626,12.542,2.655,14.781,8.19C33.791,24.193,36.901,23.366,36.123,21.445L36.123,21.445z"/>
		</g>
		<g>
			<path fill="#00ACEC" d="M148.871,21.444c-2.916-7.21-8.134-13.283-16.57-11.404c-9.086,2.025-11.252,13.414-10.332,21.063
				c0.293,2.425,1.362,4.026,3.553,5.072c7.141,3.408,13.316,5.077,14.305,14.359c0.912,8.571-8.058,15.849-16.08,14.154
				c-5.19-1.097-10.594-7.905-5.137-11.883c1.875-1.366,7.985-3.095,8.248,1.164c0.129,2.058,3.341,2.071,3.213,0
				c-0.496-7.986-11.541-6.911-15.385-1.921c-7.271,9.436,7.689,17.439,15.742,15.725c11.941-2.543,16.063-18.541,8.759-27.447
				c-1.757-2.143-3.647-3.643-6.238-4.713c-4.792-1.98-7.685-2.059-8.094-8.125c-0.352-5.205,1.847-10.404,6.14-13.381
				c6.67-4.626,12.541,2.654,14.78,8.189C146.539,24.192,149.648,23.366,148.871,21.444L148.871,21.444z"/>
		</g>
		<g>
			<path fill="#00ACEC" d="M142.646,37.228c1.607,9.427,2.936,18.885,5.617,28.087c0.498,1.712,3.225,1.423,3.154-0.427
				c-0.127-3.346,0.262-7.969,2.484-10.668c0.821-0.999,1.761,5.457,1.677,6.404c-0.13,1.43-0.187,3.279,0.578,4.584
				c3.048,5.203,10.079,3.232,9.706-2.729c-0.128-2.057-3.342-2.069-3.213,0c-2.499,2.631-3.809,2.469-3.928-0.484
				c0.027-0.924,0.091-1.843,0.193-2.76c0.128-1.422,0.212-3.074-0.494-4.387c-0.84-1.559-2.637-4.732-5.005-3.912
				c-4.767,1.652-5.37,9.756-5.211,13.951c1.052-0.143,2.103-0.285,3.154-0.427c-2.681-9.201-4.007-18.66-5.618-28.087
				C145.395,34.335,142.299,35.202,142.646,37.228L142.646,37.228z"/>
		</g>
		<g>
			<g>
				<path fill="#00ACEC" d="M161.71,54.665c-0.614,4.877,0.427,9.291,3.479,13.173c1.28,1.628,3.537-0.663,2.271-2.271
					c-2.521-3.204-3.035-6.956-2.539-10.901C165.18,52.613,161.965,52.638,161.71,54.665L161.71,54.665z"/>
			</g>
			<g>
				<path fill="#00ACEC" d="M163.316,47.845c2.071,0,2.071-3.212,0-3.212C161.244,44.633,161.244,47.845,163.316,47.845
					L163.316,47.845z"/>
			</g>
		</g>
		<g>
			<g>
				<path fill="#00ACEC" d="M165.918,55.575c1.354,7.664,4.31,14.893,6.019,22.469c0.456,2.021,3.552,1.163,3.097-0.854
					c-1.709-7.577-4.665-14.806-6.018-22.469C168.656,52.684,165.56,53.55,165.918,55.575L165.918,55.575z"/>
			</g>
			<g>
				<path fill="#00ACEC" d="M168.602,55.48c1.769-2.229,9.405-4.655,9.394,0.14c-0.008,3.221-6.902,5.23-9.326,5.546
					c-2.023,0.264-2.05,3.478,0,3.212c4.596-0.597,13.181-3.611,12.492-9.565c-0.831-7.188-11.404-5.927-14.83-1.604
					C165.058,54.813,167.316,57.104,168.602,55.48L168.602,55.48z"/>
			</g>
		</g>
		<g>
			<path fill="#00ACEC" d="M192.677,48.714c-2.07-2.484-6.075-3.319-9.106-2.525c-3.149,0.826-4.009,5.025-1.95,7.373
				c2.998,3.42,10.463,2.418,10.959,7.893c0.33,3.635-5.925,4.623-8.083,2.756c-0.814-0.703-0.653-3.315,0.692-1.99
				c1.477,1.455,3.75-0.816,2.271-2.271c-2.916-2.87-6.532-0.738-6.698,3.045c-0.235,5.418,7.476,6.269,11.05,4.4
				c5.428-2.838,4.88-9.758-0.283-12.586c-2.225-1.219-7.565-1.532-7.805-4.617c-0.203-2.635,5.885-0.162,6.682,0.796
				C191.732,52.579,193.992,50.294,192.677,48.714L192.677,48.714z"/>
		</g>
	</g>
</g>
</svg>
