<?xml version="1.0" encoding="utf-8"?>
<!-- Generator: Adobe Illustrator 16.0.0, SVG Export Plug-In . SVG Version: 6.00 Build 0)  -->
<!DOCTYPE svg PUBLIC "-//W3C//DTD SVG 1.1//EN" "http://www.w3.org/Graphics/SVG/1.1/DTD/svg11.dtd">
<svg version="1.1"
	 id="svg2" xmlns:dc="http://purl.org/dc/elements/1.1/" xmlns:cc="http://creativecommons.org/ns#" xmlns:rdf="http://www.w3.org/1999/02/22-rdf-syntax-ns#" xmlns:svg="http://www.w3.org/2000/svg" xmlns:sodipodi="http://sodipodi.sourceforge.net/DTD/sodipodi-0.dtd" xmlns:inkscape="http://www.inkscape.org/namespaces/inkscape" sodipodi:docname="New document 1" inkscape:version="0.48.0 r9654"
	 xmlns="http://www.w3.org/2000/svg" xmlns:xlink="http://www.w3.org/1999/xlink" x="0px" y="0px" width="91.667px"
	 height="99.333px" viewBox="35.833 508.5 91.667 99.333" enable-background="new 35.833 508.5 91.667 99.333" xml:space="preserve"
	>
<sodipodi:namedview  showgrid="false" inkscape:cy="449.19382" inkscape:cx="450.28618" inkscape:zoom="0.49497475" borderopacity="1.0" bordercolor="#666666" pagecolor="#ffffff" id="base" inkscape:window-maximized="0" inkscape:window-y="22" inkscape:window-x="22" inkscape:current-layer="layer2" inkscape:window-height="854" inkscape:pageshadow="2" inkscape:document-units="px" inkscape:pageopacity="0.0" inkscape:window-width="1227" inkscape:snap-global="true">
	<inkscape:grid  type="xygrid" enabled="true" visible="true" empspacing="5" id="grid2985" snapvisiblegridlinesonly="true">
		</inkscape:grid>
</sodipodi:namedview>
<g id="layer2" inkscape:label="Ship Hull" inkscape:groupmode="layer">
	<g id="g4264">
		
			<path id="path4041" inkscape:connector-curvature="0" sodipodi:nodetypes="cccccccc" fill="#939BA8" stroke="#000000" stroke-width="0.5865" d="
			M60.526,564.813l14.661,11.729h11.729l14.661-11.729l-2.932,14.661l-17.594,5.865l-17.594-5.865L60.526,564.813z"/>
		<path id="path4021" inkscape:connector-curvature="0" fill="#354459" stroke="#000000" stroke-width="0.5865" d="M60.526,567.745
			l11.729,14.661l-11.729,2.933V567.745z"/>
		<path id="path4021-9" inkscape:connector-curvature="0" fill="#354459" stroke="#000000" stroke-width="0.5865" d="
			M101.578,567.745l-11.729,14.661l11.729,2.933V567.745z"/>
		<path id="path4043" inkscape:connector-curvature="0" fill="#C4CCD3" stroke="#000000" stroke-width="0.5865" d="M72.255,582.406
			l5.865-8.797h5.864l5.865,8.797H72.255z"/>
		<path id="path4045" inkscape:connector-curvature="0" fill="#C4CCD3" stroke="#000000" stroke-width="0.5865" d="M57.594,553.083
			l11.729,5.864l2.932-2.932l-11.729-11.729L57.594,553.083z"/>
		<path id="path4045-1" inkscape:connector-curvature="0" fill="#C4CCD3" stroke="#000000" stroke-width="0.5865" d="
			M104.511,553.083l-11.729,5.864l-2.932-2.932l11.729-11.729L104.511,553.083z"/>
		<path id="path4109-6-4" inkscape:connector-curvature="0" fill="#7D886C" stroke="#000000" stroke-width="0.5245" d="
			M57.594,523.76l2.933,9.384l5.864-4.691v-4.692l-2.932-2.346L57.594,523.76z"/>
		<path id="path4133" inkscape:connector-curvature="0" fill="#40678B" stroke="#000000" stroke-width="0.5865" d="M63.458,535.489
			v-17.594l-5.865,5.864l-5.865,11.729l5.865,5.864L63.458,535.489z"/>
		<path id="path4137" inkscape:connector-curvature="0" fill="#00245A" stroke="#000000" stroke-width="0.5865" d="M60.526,523.76
			v8.797l-5.865,8.797L60.526,523.76z"/>
		<path id="path4109-6-4-1" inkscape:connector-curvature="0" fill="#7D886C" stroke="#000000" stroke-width="0.5245" d="
			M104.511,523.76l-2.933,9.384l-5.864-4.691v-4.692l2.932-2.346L104.511,523.76z"/>
		<path id="path4133-2" inkscape:connector-curvature="0" fill="#40678B" stroke="#000000" stroke-width="0.5865" d="
			M98.646,535.489v-17.594l5.865,5.864l5.865,11.729l-5.865,5.864L98.646,535.489z"/>
		<path id="path4137-2" inkscape:connector-curvature="0" fill="#00245A" stroke="#000000" stroke-width="0.5865" d="
			M101.578,523.76v8.797l5.865,8.797L101.578,523.76z"/>
		<path id="path3809" inkscape:connector-curvature="0" fill="#40678B" stroke="#000000" stroke-width="0.5865" d="M54.345,518.629
			l-8.48,19.793L40,558.947l8.797,23.459l11.729,14.661L81.052,600l20.526-2.933l11.729-14.661l8.797-23.459l-5.865-20.525
			l-8.48-19.793h-0.527l-5.654,19.793l-2.932,2.932l2.932,17.594l-2.932,17.595l-5.865,2.932l-11.729,2.933l-11.729-2.933
			l-5.865-2.932l-2.932-17.595l2.932-17.594l-2.932-2.932l-5.654-19.793H54.345z"/>
		
			<path id="path3942" inkscape:connector-curvature="0" sodipodi:nodetypes="cccccccccccccccc" fill="#00245A" stroke="#000B21" stroke-width="0.5865" d="
			M54.662,523.76c-2.933,14.662-5.865,14.662-5.865,14.662l-5.865,20.525l8.797,20.526l5.865,8.797l5.865,2.933l2.932,2.933h2.933
			l-2.933-11.729h-2.932l-2.932-2.933l-2.933-8.797l-5.865-8.797v-14.661l2.933-8.797V523.76z"/>
		
			<path id="path3973" inkscape:connector-curvature="0" sodipodi:nodetypes="ccccccc" fill="#192A44" stroke="#FFFFFF" stroke-width="0.5865" d="
			M57.594,535.489l2.933,8.797l-2.933,11.729v11.729l-2.932-5.865v-14.661C54.662,547.219,57.594,541.354,57.594,535.489z"/>
		
			<path id="path3998" inkscape:connector-curvature="0" sodipodi:nodetypes="cccccccccc" fill="#354459" stroke="#000B21" stroke-width="0.4788" d="
			M72.255,582.406l2.932,5.864v5.865l5.865,2.932l5.865-2.932v-5.865l2.932-5.864l-5.865,2.933H78.12L72.255,582.406z"/>
		
			<path id="path3942-2" inkscape:connector-curvature="0" sodipodi:nodetypes="cccccccccccccccc" fill="#00245A" stroke="#000B21" stroke-width="0.5865" d="
			M107.443,523.76c2.933,14.662,5.865,14.662,5.865,14.662l5.865,20.525l-8.797,20.526l-5.865,8.797l-5.865,2.933l-2.932,2.933
			h-2.933l2.933-11.729h2.932l2.932-2.933l2.933-8.797l5.865-8.797v-14.661l-2.933-8.797V523.76z"/>
		
			<path id="path3973-2" inkscape:connector-curvature="0" sodipodi:nodetypes="ccccccc" fill="#192A44" stroke="#FFFFFF" stroke-width="0.5865" d="
			M104.511,535.489l-2.933,8.797l2.933,11.729c0,3.909,0,7.819,0,11.729l2.932-5.865v-14.661
			C107.443,547.219,104.511,541.354,104.511,535.489z"/>
		<path id="path4069" inkscape:connector-curvature="0" d="M60.526,597.067h11.729L81.052,600L60.526,597.067z"/>
		<path id="path4071" inkscape:connector-curvature="0" d="M81.052,600l8.797-2.933h11.729L81.052,600z"/>
		<path id="path4096" inkscape:connector-curvature="0" fill="none" stroke="#000000" stroke-width="0.5865" d="M89.849,597.067
			l2.932-17.594"/>
		<path id="path4098" inkscape:connector-curvature="0" fill="none" stroke="#000000" stroke-width="0.5865" d="M72.255,597.067
			l-2.932-17.594"/>
		<path id="path4205" inkscape:connector-curvature="0" fill="#879CAD" stroke="#000000" stroke-width="0.5865" d="M75.188,523.76
			l3.666-5.864h4.398l3.666,5.864H75.188z"/>
		<path id="path4181" inkscape:connector-curvature="0" fill="#40678B" stroke="#000000" stroke-width="0.5865" d="M75.188,551.617
			l-5.864-14.662l5.864-14.661h11.729l5.864,14.661l-5.864,14.662H75.188z"/>
		<path id="path4201" inkscape:connector-curvature="0" fill="#00245A" stroke="#000000" stroke-width="0.5865" d="M74.455,539.154
			H87.65l2.199-5.131l-6.598-9.53h-4.398l-6.598,9.53L74.455,539.154z"/>
	</g>
</g>
<g id="layer3" inkscape:label="Ship Engine" inkscape:groupmode="layer" sodipodi:insensitive="true">
	
		<path id="path3938" sodipodi:ry="128.57143" sodipodi:rx="119.28571" sodipodi:cy="331.42856" sodipodi:cx="319.28571" sodipodi:type="arc" fill="#86B6D2" stroke="#000000" stroke-width="0.5865" stroke-linejoin="round" d="
		M98.437,556.016c0,12.955-7.83,23.458-17.489,23.458c-9.659,0-17.489-10.503-17.489-23.458c0-12.956,7.83-23.459,17.489-23.459
		C90.606,532.557,98.437,543.06,98.437,556.016z"/>
	
		<path id="path3940" sodipodi:ry="110" sodipodi:rx="100.71429" sodipodi:cy="330" sodipodi:cx="319.28571" sodipodi:type="arc" fill="#4096E0" stroke="#000000" stroke-width="0.5865" stroke-linejoin="round" d="
		M95.714,556.016c0,11.336-6.611,20.526-14.766,20.526c-8.155,0-14.767-9.19-14.767-20.526l0,0c0-11.336,6.611-20.526,14.767-20.526
		C89.103,535.489,95.714,544.68,95.714,556.016z"/>
	
		<path id="path4065" sodipodi:ry="90" sodipodi:rx="40" sodipodi:cy="330" sodipodi:cx="320" sodipodi:type="arc" fill="#424242" fill-opacity="0.549" d="
		M86.917,556.016c0,9.717-2.626,17.594-5.865,17.594s-5.865-7.877-5.865-17.594s2.626-17.594,5.865-17.594
		S86.917,546.299,86.917,556.016z"/>
	
		<path id="path4067" sodipodi:ry="60" sodipodi:rx="60" sodipodi:cy="320" sodipodi:cx="320" sodipodi:type="arc" fill="#DBEEFF" fill-opacity="0.4951" stroke="#73898B" stroke-width="0.5865" stroke-linejoin="round" d="
		M89.849,556.016c0,8.098-3.938,14.661-8.797,14.661s-8.797-6.563-8.797-14.661s3.938-14.662,8.797-14.662
		S89.849,547.918,89.849,556.016z"/>
	<path id="path3938-9" inkscape:connector-curvature="0" fill="#F5FBFF" fill-opacity="0.1569" d="M80.719,533.236
		c-9.047,0-16.381,9.956-16.381,22.236c0,9.59,4.47,17.761,10.738,20.882c-0.483-3.492-0.738-7.148-0.738-10.914
		c0-12.638,2.891-24.047,7.532-32.147C81.488,533.257,81.107,533.236,80.719,533.236z"/>
	
		<path id="path4262" sodipodi:ry="53.538086" sodipodi:rx="35.355339" sodipodi:cy="263.2131" sodipodi:cx="295.9747" sodipodi:type="arc" fill="#F5FBFF" fill-opacity="0.5882" d="
		M78.859,550.85c-2.712,3.536-6.022,4.689-7.392,2.578c-1.371-2.112-0.283-6.691,2.43-10.227c0.002-0.003,0.004-0.006,0.006-0.009
		c2.713-3.534,6.022-4.686,7.391-2.571S81.572,547.315,78.859,550.85L78.859,550.85z"/>
</g>
<g id="layer4" inkscape:label="Highlights" inkscape:groupmode="layer" sodipodi:insensitive="true">
	
		<path id="path3809-5" inkscape:connector-curvature="0" sodipodi:nodetypes="ccczcccccccccccccccccccccccccccccccc" fill="#FFFFFF" fill-opacity="0.1569" d="
		M78.12,517.896l-2.933,5.864l-5.864,13.195c0,0,4.398-2.932,8.797-4.398c4.398-1.466,2.932-14.661,2.932-14.661H78.12z
		 M107.232,518.629l-5.654,19.793l-2.932,2.932l2.932,17.594l-1.393,8.357l-1.54,18.034c5.865-5.865,8.797-11.729,8.797-11.729
		l5.865-20.526l-5.865-14.661l0.316-19.793H107.232z M54.144,519.096l-8.279,19.326L40,558.947l8.797,23.459l11.729,14.661
		l-8.797-32.255l-2.932-8.797l2.932-17.594L54.144,519.096z M67.449,578.539l-1.059,18.528h5.865l-2.932-17.594L67.449,578.539z
		 M92.223,579.611l-11.17,2.795V600l8.797-2.933L92.223,579.611z"/>
</g>
</svg>
